<?xml version="1.0" encoding="utf-8"?>
<!-- Generator: Adobe Illustrator 15.0.0, SVG Export Plug-In . SVG Version: 6.00 Build 0)  -->
<!DOCTYPE svg PUBLIC "-//W3C//DTD SVG 1.1//EN" "http://www.w3.org/Graphics/SVG/1.1/DTD/svg11.dtd">
<svg version="1.1" id="Layer_1" xmlns="http://www.w3.org/2000/svg" xmlns:xlink="http://www.w3.org/1999/xlink" x="0px" y="0px"
	 width="400px" height="400px" viewBox="0 0 400 400" enable-background="new 0 0 400 400" xml:space="preserve">
<g>
	<defs>
		<rect id="SVGID_1_" width="400" height="400"/>
	</defs>
	<clipPath id="SVGID_2_">
		<use xlink:href="#SVGID_1_"  overflow="visible"/>
	</clipPath>
	<g clip-path="url(#SVGID_2_)">
		<defs>
			<rect id="SVGID_3_" width="400" height="400"/>
		</defs>
		<clipPath id="SVGID_4_">
			<use xlink:href="#SVGID_3_"  overflow="visible"/>
		</clipPath>
		<path clip-path="url(#SVGID_4_)" fill="#FAD39C" d="M161.39,233.19c0.01-0.014,0.018-0.028,0.026-0.043l1.452-1.33l-0.001-0.001
			c0.1-0.087,0.163-0.207,0.163-0.342v-2.885c0-0.266-0.242-0.479-0.539-0.479h-0.23c-0.297,0-0.539,0.214-0.539,0.479v2.042
			l-0.241,0.214v-0.261v-4.101c0-0.28-0.255-0.508-0.571-0.508c-0.316,0-0.572,0.228-0.572,0.508v3.652h-0.157v-4.158
			c0-0.28-0.256-0.508-0.571-0.508c-0.316,0-0.572,0.228-0.572,0.508v4.158h-0.166v-3.44c0-0.28-0.256-0.507-0.572-0.507
			c-0.315,0-0.571,0.227-0.571,0.507v3.44h-0.192v-2.056c0-0.239-0.219-0.434-0.489-0.434s-0.489,0.194-0.489,0.434v3.787
			c0,0.031,0.013,0.058,0.02,0.086l-0.02,0.044l0.489,1.178V250h4.342V233.19z"/>
		<path clip-path="url(#SVGID_4_)" fill="#FAD39C" d="M168.961,237.089c0.007-0.011,0.014-0.022,0.02-0.033l1.115-1.022h-0.001
			c0.077-0.066,0.126-0.16,0.126-0.263v-2.216c0-0.204-0.186-0.368-0.415-0.368h-0.176c-0.229,0-0.414,0.164-0.414,0.368v1.567
			l-0.185,0.164v-0.198v-3.15c0-0.215-0.196-0.39-0.439-0.39c-0.242,0-0.439,0.175-0.439,0.39v2.805h-0.12v-3.192
			c0-0.217-0.197-0.392-0.44-0.392c-0.242,0-0.439,0.175-0.439,0.392v3.192h-0.127v-2.642c0-0.215-0.197-0.391-0.439-0.391
			c-0.243,0-0.439,0.176-0.439,0.391v2.642h-0.148v-1.578c0-0.185-0.168-0.334-0.375-0.334s-0.375,0.149-0.375,0.334v2.909
			c0,0.023,0.009,0.043,0.014,0.065l-0.014,0.034l0.375,0.904V250h3.335V237.089z"/>
		<path clip-path="url(#SVGID_4_)" fill="#F5C04C" d="M162.078,219.614l-4.154,1.479c-0.544,0.194-0.828,0.792-0.634,1.336
			l2.943,8.265c0.194,0.544,0.791,0.828,1.335,0.634l4.155-1.479c0.543-0.193,0.827-0.792,0.634-1.336l-2.944-8.264
			C163.22,219.704,162.622,219.42,162.078,219.614"/>
		<g clip-path="url(#SVGID_4_)">
			<g>
				<defs>
					<rect id="SVGID_5_" x="157.996" y="221.51" width="1.623" height="1.623"/>
				</defs>
				<clipPath id="SVGID_6_">
					<use xlink:href="#SVGID_5_"  overflow="visible"/>
				</clipPath>
				<path clip-path="url(#SVGID_6_)" fill="#E6E6E6" d="M158.535,221.558c-0.422,0.149-0.643,0.614-0.492,1.037
					c0.15,0.422,0.614,0.642,1.036,0.491c0.423-0.15,0.643-0.614,0.493-1.036C159.421,221.627,158.957,221.407,158.535,221.558"/>
			</g>
		</g>
		<g clip-path="url(#SVGID_4_)">
			<g>
				<defs>
					<rect id="SVGID_7_" x="160.698" y="229.097" width="1.623" height="1.623"/>
				</defs>
				<clipPath id="SVGID_8_">
					<use xlink:href="#SVGID_7_"  overflow="visible"/>
				</clipPath>
				<path clip-path="url(#SVGID_8_)" fill="#E6E6E6" d="M161.659,229.111c-0.44-0.082-0.864,0.208-0.947,0.647
					c-0.082,0.441,0.208,0.865,0.648,0.947c0.441,0.083,0.865-0.208,0.947-0.647C162.39,229.617,162.1,229.194,161.659,229.111"/>
			</g>
		</g>
		<g clip-path="url(#SVGID_4_)">
			<g>
				<defs>
					<rect id="SVGID_9_" x="158.67" y="223.403" width="1.623" height="1.623"/>
				</defs>
				<clipPath id="SVGID_10_">
					<use xlink:href="#SVGID_9_"  overflow="visible"/>
				</clipPath>
				<path clip-path="url(#SVGID_10_)" fill="#E6E6E6" d="M159.874,223.504c-0.392-0.217-0.886-0.073-1.102,0.318
					c-0.217,0.393-0.075,0.886,0.317,1.104c0.393,0.216,0.886,0.073,1.103-0.319C160.409,224.215,160.266,223.722,159.874,223.504"
					/>
			</g>
		</g>
		<g clip-path="url(#SVGID_4_)">
			<g>
				<defs>
					<rect id="SVGID_11_" x="159.34" y="225.284" width="1.623" height="1.623"/>
				</defs>
				<clipPath id="SVGID_12_">
					<use xlink:href="#SVGID_11_"  overflow="visible"/>
				</clipPath>
				<path clip-path="url(#SVGID_12_)" fill="#E6E6E6" d="M159.365,226.295c0.11,0.434,0.551,0.698,0.986,0.588
					c0.434-0.11,0.697-0.552,0.587-0.986c-0.11-0.434-0.551-0.696-0.985-0.588C159.518,225.419,159.255,225.86,159.365,226.295"/>
			</g>
		</g>
		<g clip-path="url(#SVGID_4_)">
			<g>
				<defs>
					<rect id="SVGID_13_" x="160.033" y="227.231" width="1.623" height="1.622"/>
				</defs>
				<clipPath id="SVGID_14_">
					<use xlink:href="#SVGID_13_"  overflow="visible"/>
				</clipPath>
				<path clip-path="url(#SVGID_14_)" fill="#E6E6E6" d="M161.001,227.246c-0.44-0.086-0.866,0.2-0.953,0.64
					c-0.086,0.439,0.2,0.866,0.64,0.952c0.44,0.087,0.866-0.199,0.953-0.639C161.727,227.759,161.441,227.332,161.001,227.246"/>
			</g>
		</g>
		<g clip-path="url(#SVGID_4_)">
			<g>
				<defs>
					<rect id="SVGID_15_" x="161.475" y="220.394" width="1.623" height="1.623"/>
				</defs>
				<clipPath id="SVGID_16_">
					<use xlink:href="#SVGID_15_"  overflow="visible"/>
				</clipPath>
				<path clip-path="url(#SVGID_16_)" fill="#E6E6E6" d="M162.559,221.97c0.422-0.149,0.642-0.614,0.492-1.036
					c-0.15-0.423-0.614-0.643-1.036-0.493c-0.423,0.151-0.643,0.615-0.493,1.037C161.672,221.9,162.137,222.12,162.559,221.97"/>
			</g>
		</g>
		<g clip-path="url(#SVGID_4_)">
			<g>
				<defs>
					<rect id="SVGID_17_" x="164.177" y="227.981" width="1.623" height="1.622"/>
				</defs>
				<clipPath id="SVGID_18_">
					<use xlink:href="#SVGID_17_"  overflow="visible"/>
				</clipPath>
				<path clip-path="url(#SVGID_18_)" fill="#E6E6E6" d="M165.138,227.995c-0.44-0.083-0.864,0.208-0.947,0.647
					c-0.082,0.441,0.208,0.864,0.648,0.947c0.441,0.083,0.865-0.208,0.947-0.647C165.869,228.501,165.579,228.078,165.138,227.995"
					/>
			</g>
		</g>
		<g clip-path="url(#SVGID_4_)">
			<g>
				<defs>
					<rect id="SVGID_19_" x="162.149" y="222.287" width="1.623" height="1.623"/>
				</defs>
				<clipPath id="SVGID_20_">
					<use xlink:href="#SVGID_19_"  overflow="visible"/>
				</clipPath>
				<path clip-path="url(#SVGID_20_)" fill="#E6E6E6" d="M163.353,222.388c-0.392-0.217-0.886-0.073-1.103,0.318
					c-0.216,0.392-0.074,0.886,0.318,1.104c0.393,0.216,0.886,0.073,1.103-0.319C163.888,223.098,163.745,222.605,163.353,222.388"
					/>
			</g>
		</g>
		<g clip-path="url(#SVGID_4_)">
			<g>
				<defs>
					<rect id="SVGID_21_" x="162.819" y="224.168" width="1.623" height="1.623"/>
				</defs>
				<clipPath id="SVGID_22_">
					<use xlink:href="#SVGID_21_"  overflow="visible"/>
				</clipPath>
				<path clip-path="url(#SVGID_22_)" fill="#E6E6E6" d="M162.844,225.179c0.11,0.434,0.551,0.697,0.986,0.588
					c0.434-0.11,0.697-0.552,0.587-0.986c-0.11-0.434-0.551-0.697-0.985-0.588C162.997,224.303,162.734,224.744,162.844,225.179"/>
			</g>
		</g>
		<g clip-path="url(#SVGID_4_)">
			<g>
				<defs>
					<rect id="SVGID_23_" x="163.512" y="226.115" width="1.623" height="1.623"/>
				</defs>
				<clipPath id="SVGID_24_">
					<use xlink:href="#SVGID_23_"  overflow="visible"/>
				</clipPath>
				<path clip-path="url(#SVGID_24_)" fill="#E6E6E6" d="M164.48,226.13c-0.44-0.087-0.866,0.2-0.953,0.64
					c-0.086,0.439,0.2,0.866,0.64,0.952c0.44,0.087,0.866-0.199,0.953-0.639C165.206,226.643,164.92,226.216,164.48,226.13"/>
			</g>
		</g>
		<path clip-path="url(#SVGID_4_)" fill="#FFFFFF" d="M159.474,222.023c0.15,0.422-0.07,0.886-0.492,1.037
			c-0.422,0.149-0.886-0.071-1.037-0.493c-0.15-0.422,0.07-0.886,0.492-1.036C158.859,221.38,159.323,221.602,159.474,222.023"/>
		<g clip-path="url(#SVGID_4_)">
			<g>
				<defs>
					<rect id="SVGID_25_" x="158.409" y="221.58" width="0.604" height="1.442"/>
				</defs>
				<clipPath id="SVGID_26_">
					<use xlink:href="#SVGID_25_"  overflow="visible"/>
				</clipPath>
				<path clip-path="url(#SVGID_26_)" fill="#E6E6E6" d="M158.456,221.584c-0.037,0.014-0.056,0.055-0.043,0.09l0.463,1.302
					c0.013,0.036,0.054,0.056,0.091,0.043c0.036-0.014,0.055-0.055,0.042-0.091l-0.463-1.301
					C158.533,221.59,158.493,221.571,158.456,221.584"/>
			</g>
		</g>
		<path clip-path="url(#SVGID_4_)" fill="#FFFFFF" d="M161.262,230.68c-0.441-0.083-0.731-0.506-0.648-0.947
			c0.082-0.439,0.506-0.73,0.947-0.647c0.44,0.082,0.73,0.506,0.648,0.947C162.126,230.472,161.702,230.762,161.262,230.68"/>
		<g clip-path="url(#SVGID_4_)">
			<g>
				<defs>
					<rect id="SVGID_27_" x="160.656" y="229.683" width="1.498" height="0.396"/>
				</defs>
				<clipPath id="SVGID_28_">
					<use xlink:href="#SVGID_27_"  overflow="visible"/>
				</clipPath>
				<path clip-path="url(#SVGID_28_)" fill="#E6E6E6" d="M162.153,230.021c0.007-0.038-0.018-0.075-0.056-0.082l-1.357-0.255
					c-0.039-0.008-0.076,0.019-0.083,0.057c-0.007,0.038,0.018,0.075,0.057,0.082l1.357,0.254
					C162.109,230.085,162.146,230.06,162.153,230.021"/>
			</g>
		</g>
		<path clip-path="url(#SVGID_4_)" fill="#FFFFFF" d="M160.094,224.58c-0.217,0.393-0.71,0.535-1.102,0.318
			c-0.393-0.217-0.535-0.71-0.318-1.103c0.216-0.393,0.71-0.534,1.102-0.318C160.167,223.694,160.311,224.188,160.094,224.58"/>
		<g clip-path="url(#SVGID_4_)">
			<g>
				<defs>
					<rect id="SVGID_29_" x="158.976" y="223.519" width="0.809" height="1.35"/>
				</defs>
				<clipPath id="SVGID_30_">
					<use xlink:href="#SVGID_29_"  overflow="visible"/>
				</clipPath>
				<path clip-path="url(#SVGID_30_)" fill="#E6E6E6" d="M159.748,223.527c-0.034-0.019-0.077-0.006-0.096,0.028l-0.667,1.208
					c-0.019,0.034-0.007,0.077,0.027,0.096c0.034,0.02,0.077,0.007,0.096-0.027l0.668-1.209
					C159.794,223.59,159.782,223.547,159.748,223.527"/>
			</g>
		</g>
		<path clip-path="url(#SVGID_4_)" fill="#FFFFFF" d="M159.854,225.283c0.434-0.11,0.876,0.152,0.986,0.588
			c0.109,0.434-0.154,0.875-0.588,0.984c-0.434,0.11-0.876-0.152-0.986-0.587C159.157,225.834,159.42,225.393,159.854,225.283"/>
		<g clip-path="url(#SVGID_4_)">
			<g>
				<defs>
					<rect id="SVGID_31_" x="159.319" y="225.828" width="1.48" height="0.479"/>
				</defs>
				<clipPath id="SVGID_32_">
					<use xlink:href="#SVGID_31_"  overflow="visible"/>
				</clipPath>
				<path clip-path="url(#SVGID_32_)" fill="#E6E6E6" d="M159.321,226.255c0.01,0.038,0.048,0.061,0.086,0.051l1.338-0.338
					c0.038-0.01,0.061-0.049,0.051-0.086c-0.009-0.038-0.048-0.062-0.085-0.051l-1.339,0.338
					C159.335,226.179,159.312,226.217,159.321,226.255"/>
			</g>
		</g>
		<path clip-path="url(#SVGID_4_)" fill="#FFFFFF" d="M159.95,227.859c0.086-0.44,0.513-0.726,0.953-0.64
			c0.439,0.087,0.726,0.513,0.639,0.953c-0.086,0.439-0.513,0.726-0.952,0.64C160.15,228.726,159.864,228.3,159.95,227.859"/>
		<g clip-path="url(#SVGID_4_)">
			<g>
				<defs>
					<rect id="SVGID_33_" x="160.544" y="227.262" width="0.407" height="1.496"/>
				</defs>
				<clipPath id="SVGID_34_">
					<use xlink:href="#SVGID_33_"  overflow="visible"/>
				</clipPath>
				<path clip-path="url(#SVGID_34_)" fill="#E6E6E6" d="M160.601,228.757c0.038,0.007,0.075-0.019,0.083-0.056l0.266-1.354
					c0.008-0.039-0.017-0.076-0.055-0.083c-0.039-0.008-0.076,0.017-0.083,0.055l-0.267,1.355
					C160.538,228.712,160.563,228.749,160.601,228.757"/>
			</g>
		</g>
		<path clip-path="url(#SVGID_4_)" fill="#FFFFFF" d="M162.952,220.907c0.15,0.422-0.07,0.886-0.492,1.037
			c-0.422,0.149-0.886-0.07-1.037-0.493c-0.15-0.422,0.07-0.886,0.492-1.036C162.338,220.265,162.802,220.485,162.952,220.907"/>
		<g clip-path="url(#SVGID_4_)">
			<g>
				<defs>
					<rect id="SVGID_35_" x="161.888" y="220.464" width="0.604" height="1.442"/>
				</defs>
				<clipPath id="SVGID_36_">
					<use xlink:href="#SVGID_35_"  overflow="visible"/>
				</clipPath>
				<path clip-path="url(#SVGID_36_)" fill="#E6E6E6" d="M161.935,220.468c-0.037,0.014-0.056,0.055-0.043,0.091l0.463,1.301
					c0.013,0.036,0.054,0.056,0.09,0.043c0.037-0.014,0.056-0.055,0.043-0.091l-0.463-1.301
					C162.012,220.474,161.972,220.455,161.935,220.468"/>
			</g>
		</g>
		<path clip-path="url(#SVGID_4_)" fill="#FFFFFF" d="M164.741,229.563c-0.44-0.082-0.731-0.506-0.648-0.947
			c0.082-0.439,0.506-0.729,0.947-0.647c0.44,0.082,0.73,0.506,0.648,0.947C165.604,229.355,165.181,229.646,164.741,229.563"/>
		<g clip-path="url(#SVGID_4_)">
			<g>
				<defs>
					<rect id="SVGID_37_" x="164.135" y="228.567" width="1.498" height="0.396"/>
				</defs>
				<clipPath id="SVGID_38_">
					<use xlink:href="#SVGID_37_"  overflow="visible"/>
				</clipPath>
				<path clip-path="url(#SVGID_38_)" fill="#E6E6E6" d="M165.632,228.905c0.007-0.038-0.018-0.075-0.056-0.082l-1.357-0.255
					c-0.039-0.008-0.076,0.019-0.083,0.057c-0.007,0.038,0.018,0.075,0.057,0.082l1.357,0.254
					C165.588,228.969,165.625,228.943,165.632,228.905"/>
			</g>
		</g>
		<path clip-path="url(#SVGID_4_)" fill="#FFFFFF" d="M163.572,223.464c-0.217,0.393-0.71,0.535-1.103,0.318
			c-0.392-0.217-0.534-0.71-0.318-1.103c0.217-0.393,0.711-0.534,1.103-0.318C163.646,222.578,163.79,223.072,163.572,223.464"/>
		<g clip-path="url(#SVGID_4_)">
			<g>
				<defs>
					<rect id="SVGID_39_" x="162.455" y="222.402" width="0.808" height="1.35"/>
				</defs>
				<clipPath id="SVGID_40_">
					<use xlink:href="#SVGID_39_"  overflow="visible"/>
				</clipPath>
				<path clip-path="url(#SVGID_40_)" fill="#E6E6E6" d="M163.227,222.411c-0.034-0.019-0.077-0.006-0.096,0.028l-0.667,1.208
					c-0.019,0.034-0.007,0.077,0.027,0.096c0.034,0.019,0.077,0.007,0.096-0.028l0.668-1.208
					C163.273,222.474,163.261,222.431,163.227,222.411"/>
			</g>
		</g>
		<path clip-path="url(#SVGID_4_)" fill="#FFFFFF" d="M163.333,224.167c0.434-0.11,0.876,0.152,0.986,0.588
			c0.109,0.434-0.154,0.875-0.588,0.984c-0.434,0.11-0.876-0.152-0.986-0.587S162.899,224.276,163.333,224.167"/>
		<g clip-path="url(#SVGID_4_)">
			<g>
				<defs>
					<rect id="SVGID_41_" x="162.798" y="224.712" width="1.48" height="0.48"/>
				</defs>
				<clipPath id="SVGID_42_">
					<use xlink:href="#SVGID_41_"  overflow="visible"/>
				</clipPath>
				<path clip-path="url(#SVGID_42_)" fill="#E6E6E6" d="M162.8,225.139c0.01,0.038,0.048,0.061,0.086,0.051l1.338-0.338
					c0.038-0.01,0.061-0.048,0.051-0.086c-0.009-0.038-0.048-0.062-0.086-0.052l-1.338,0.339
					C162.814,225.062,162.792,225.101,162.8,225.139"/>
			</g>
		</g>
		<path clip-path="url(#SVGID_4_)" fill="#FFFFFF" d="M163.429,226.743c0.086-0.44,0.513-0.726,0.953-0.64
			c0.439,0.087,0.726,0.513,0.639,0.953c-0.086,0.439-0.513,0.726-0.952,0.64C163.629,227.609,163.343,227.184,163.429,226.743"/>
		<g clip-path="url(#SVGID_4_)">
			<g>
				<defs>
					<rect id="SVGID_43_" x="164.023" y="226.146" width="0.407" height="1.495"/>
				</defs>
				<clipPath id="SVGID_44_">
					<use xlink:href="#SVGID_43_"  overflow="visible"/>
				</clipPath>
				<path clip-path="url(#SVGID_44_)" fill="#E6E6E6" d="M164.08,227.641c0.038,0.007,0.076-0.019,0.083-0.057l0.266-1.354
					c0.008-0.038-0.017-0.076-0.055-0.083c-0.039-0.008-0.076,0.017-0.083,0.056l-0.267,1.354
					C164.017,227.596,164.042,227.633,164.08,227.641"/>
			</g>
		</g>
		<g clip-path="url(#SVGID_4_)">
			<g>
				<defs>
					<rect id="SVGID_45_" x="160.132" y="221.004" width="3.414" height="9.025"/>
				</defs>
				<clipPath id="SVGID_46_">
					<use xlink:href="#SVGID_45_"  overflow="visible"/>
				</clipPath>
				<path clip-path="url(#SVGID_46_)" fill="#F2F2F2" d="M160.235,221.014c-0.081,0.028-0.123,0.118-0.094,0.199l3.102,8.713
					c0.029,0.081,0.119,0.124,0.2,0.095s0.123-0.118,0.094-0.199l-3.103-8.713C160.405,221.026,160.316,220.984,160.235,221.014"/>
			</g>
		</g>
		<g clip-path="url(#SVGID_4_)">
			<g>
				<defs>
					<rect id="SVGID_47_" x="160" y="219.553" width="6.417" height="11.035"/>
				</defs>
				<clipPath id="SVGID_48_">
					<use xlink:href="#SVGID_47_"  overflow="visible"/>
				</clipPath>
				<path clip-path="url(#SVGID_48_)" fill="#F2F2F2" d="M162.078,219.614l-2.077,0.74l3.644,10.232l2.078-0.739
					c0.543-0.193,0.827-0.792,0.634-1.336l-2.944-8.264C163.22,219.704,162.622,219.42,162.078,219.614"/>
			</g>
		</g>
		<path clip-path="url(#SVGID_4_)" fill="#FAD39C" d="M172.839,220.42l-2.697-4.521c-0.319-0.535-1.012-0.71-1.547-0.391
			c-0.534,0.319-0.71,1.011-0.39,1.546l2.697,4.522c0.319,0.533,1.011,0.709,1.546,0.39
			C172.983,221.646,173.159,220.955,172.839,220.42"/>
		<path clip-path="url(#SVGID_4_)" fill="#FAD39C" d="M207.092,206.096c0.021-0.021,0.038-0.044,0.057-0.066l2.646-1.837
			l-0.001-0.002c0.182-0.117,0.322-0.308,0.377-0.544l1.198-5.061c0.11-0.464-0.149-0.922-0.579-1.024l-0.331-0.079
			c-0.43-0.101-0.868,0.192-0.978,0.656l-0.848,3.582l-0.437,0.293l0.108-0.456l1.701-7.192c0.117-0.491-0.157-0.978-0.613-1.085
			c-0.456-0.108-0.92,0.203-1.036,0.695l-1.517,6.405l-0.226-0.054l1.725-7.292c0.117-0.492-0.157-0.978-0.613-1.086
			c-0.456-0.108-0.92,0.203-1.036,0.695l-1.727,7.292l-0.239-0.056l1.428-6.033c0.116-0.492-0.159-0.978-0.614-1.086
			c-0.456-0.108-0.92,0.203-1.036,0.695l-1.428,6.033l-0.277-0.066l0.854-3.604c0.099-0.421-0.136-0.836-0.525-0.929
			c-0.39-0.092-0.786,0.174-0.886,0.595l-1.572,6.642c-0.013,0.054-0.005,0.104-0.007,0.157l-0.047,0.069l0.217,2.233L200.845,250
			h6.264L207.092,206.096z"/>
		<path clip-path="url(#SVGID_4_)" fill="#FAD39C" d="M190.94,206.096c-0.02-0.021-0.038-0.044-0.056-0.066l-2.647-1.837
			l0.001-0.002c-0.181-0.117-0.322-0.308-0.377-0.544l-1.198-5.061c-0.11-0.464,0.149-0.922,0.579-1.024l0.331-0.079
			c0.43-0.101,0.868,0.192,0.978,0.656l0.847,3.582l0.437,0.293l-0.108-0.456l-1.702-7.192c-0.117-0.491,0.159-0.978,0.614-1.085
			c0.456-0.108,0.92,0.203,1.036,0.695l1.516,6.405l0.227-0.054l-1.726-7.292c-0.117-0.492,0.158-0.978,0.614-1.086
			c0.456-0.108,0.92,0.203,1.036,0.695l1.726,7.292l0.24-0.056l-1.428-6.033c-0.116-0.492,0.159-0.978,0.614-1.086
			c0.456-0.108,0.92,0.203,1.036,0.695l1.428,6.033l0.277-0.066l-0.853-3.604c-0.099-0.421,0.136-0.836,0.525-0.929
			c0.39-0.092,0.787,0.174,0.886,0.595l1.572,6.642c0.013,0.054,0.005,0.104,0.008,0.157l0.046,0.069l-0.217,2.233L197.188,250
			h-6.263L190.94,206.096z"/>
		<path clip-path="url(#SVGID_4_)" fill="#FAD39C" d="M221.43,215.959l-2.047-1.42v-0.001c-0.139-0.092-0.248-0.239-0.291-0.421
			l-0.927-3.913c-0.085-0.359,0.116-0.714,0.449-0.793l0.256-0.061c0.332-0.078,0.671,0.148,0.755,0.508l0.656,2.77l0.337,0.226
			l-0.083-0.352l-1.316-5.562c-0.09-0.381,0.122-0.757,0.476-0.84c0.352-0.084,0.711,0.157,0.801,0.537l1.172,4.953l0.175-0.041
			l-1.334-5.639c-0.09-0.381,0.122-0.757,0.476-0.84c0.352-0.084,0.711,0.156,0.801,0.538l1.335,5.639l0.185-0.044l-1.104-4.665
			c-0.09-0.381,0.123-0.757,0.475-0.84c0.353-0.083,0.711,0.157,0.801,0.538l1.104,4.665l0.215-0.052l-0.66-2.786
			c-0.077-0.326,0.105-0.647,0.406-0.719s0.608,0.135,0.685,0.459l1.217,5.138c0.009,0.041,0.004,0.08,0.005,0.121l-0.131,1.78
			L226.338,250h-4.848l-0.018-33.989C221.458,215.995,221.444,215.977,221.43,215.959"/>
		<path clip-path="url(#SVGID_4_)" fill="#FAD39C" d="M176.564,217.871c0.013-0.022,0.023-0.048,0.034-0.072l0.086-4.338
			l-1.504-0.76h-0.207h-1.505h-0.218l-2.401,5.146V250h5.715V217.871z"/>
		<path clip-path="url(#SVGID_4_)" fill="#FAD39C" d="M239.974,229.507c0.012-0.021,0.023-0.044,0.033-0.067l1.847-2.055
			l-0.001-0.001c0.127-0.134,0.207-0.321,0.207-0.528v-4.46c0-0.407-0.307-0.739-0.686-0.739h-0.292
			c-0.379,0-0.687,0.332-0.687,0.739v3.156l-0.306,0.331v-0.402v-6.336c0-0.434-0.325-0.784-0.728-0.784
			c-0.4,0-0.727,0.351-0.727,0.784v5.644h-0.2v-6.425c0-0.435-0.325-0.785-0.727-0.785s-0.728,0.351-0.728,0.785v6.425h-0.211
			v-5.316c0-0.433-0.326-0.784-0.727-0.784c-0.402,0-0.728,0.352-0.728,0.784v5.316h-0.244v-3.176c0-0.371-0.278-0.672-0.622-0.672
			c-0.343,0-0.622,0.301-0.622,0.672v6.053l0.622,1.819V250h5.523V229.507z"/>
		<path clip-path="url(#SVGID_4_)" fill="#FAD39C" d="M231.328,234.522c0.009-0.017,0.017-0.033,0.024-0.052l1.396-1.552
			l-0.001-0.001c0.096-0.101,0.155-0.242,0.155-0.398v-3.367c0-0.31-0.231-0.561-0.518-0.561h-0.22
			c-0.286,0-0.519,0.251-0.519,0.561v2.383l-0.23,0.249v-0.303v-4.785c0-0.328-0.246-0.594-0.549-0.594
			c-0.305,0-0.55,0.266-0.55,0.594v4.262h-0.15v-4.853c0-0.327-0.246-0.594-0.549-0.594c-0.305,0-0.551,0.267-0.551,0.594v4.853
			h-0.158v-4.015c0-0.327-0.246-0.594-0.55-0.594s-0.549,0.267-0.549,0.594v4.015h-0.185v-2.399c0-0.279-0.21-0.507-0.469-0.507
			c-0.261,0-0.471,0.228-0.471,0.507v4.42c0,0.036,0.013,0.067,0.02,0.101l-0.02,0.051l0.471,1.375V250h4.171V234.522z"/>
		<path clip-path="url(#SVGID_4_)" fill="#FAD39C" d="M185.096,236.98c0.01-0.014,0.018-0.028,0.026-0.043l1.452-1.33l-0.001-0.001
			c0.1-0.087,0.163-0.207,0.163-0.341v-2.887c0-0.265-0.242-0.479-0.539-0.479h-0.23c-0.298,0-0.539,0.215-0.539,0.479v2.043
			l-0.241,0.214v-0.261v-4.101c0-0.28-0.256-0.508-0.571-0.508c-0.316,0-0.572,0.228-0.572,0.508v3.652h-0.157v-4.158
			c0-0.28-0.256-0.508-0.571-0.508c-0.316,0-0.572,0.228-0.572,0.508v4.158h-0.166v-3.44c0-0.28-0.256-0.507-0.572-0.507
			c-0.315,0-0.571,0.227-0.571,0.507v3.44h-0.192v-2.056c0-0.239-0.219-0.434-0.489-0.434s-0.489,0.194-0.489,0.434v3.787
			c0,0.031,0.013,0.058,0.02,0.086l-0.02,0.044l0.489,1.178V250h4.342V236.98z"/>
		<path clip-path="url(#SVGID_4_)" fill="#FAD39C" d="M186.014,229.507v-1.089h-1.592v1.089c0,0.572,0.357,1.035,0.796,1.035
			C185.658,230.542,186.014,230.079,186.014,229.507"/>
		<path clip-path="url(#SVGID_4_)" fill="#FAD39C" d="M181.584,226.829c-0.44,0-0.796,0.464-0.796,1.035v1.089h1.592v-1.089
			C182.38,227.293,182.023,226.829,181.584,226.829"/>
		<path clip-path="url(#SVGID_4_)" fill="#FAD39C" d="M183.407,226.829c-0.439,0-0.796,0.464-0.796,1.035v1.089h1.592v-1.089
			C184.203,227.293,183.846,226.829,183.407,226.829"/>
		<path clip-path="url(#SVGID_4_)" fill="#FAD39C" d="M185.218,226.829c-0.439,0-0.796,0.464-0.796,1.035v1.089h1.592v-1.089
			C186.014,227.293,185.657,226.829,185.218,226.829"/>
		<path clip-path="url(#SVGID_4_)" fill="#FAD39C" d="M184.203,230.539v-2.121h-1.592v2.121c0,0.571,0.357,1.034,0.796,1.034
			C183.847,231.573,184.203,231.11,184.203,230.539"/>
		<path clip-path="url(#SVGID_4_)" fill="#FAD39C" d="M182.38,229.074v-0.656h-1.592v0.656c0,0.572,0.357,1.035,0.796,1.035
			C182.024,230.109,182.38,229.646,182.38,229.074"/>
		<path clip-path="url(#SVGID_4_)" fill="#F2F2F2" d="M156.971,224.079l-2.594,3.476c-0.29,0.39-0.21,0.94,0.179,1.231l5.573,4.159
			c0.389,0.29,0.94,0.21,1.231-0.18l2.594-3.476c0.29-0.389,0.21-0.94-0.179-1.231l-5.573-4.158
			C157.813,223.61,157.262,223.689,156.971,224.079"/>
		<g clip-path="url(#SVGID_4_)">
			<g>
				<defs>
					<rect id="SVGID_49_" x="154.917" y="226.676" width="1.865" height="2.176"/>
				</defs>
				<clipPath id="SVGID_50_">
					<use xlink:href="#SVGID_49_"  overflow="visible"/>
				</clipPath>
				<path clip-path="url(#SVGID_50_)" fill="#E6E6E6" d="M155.773,228.661l0.457-0.613l0.458-0.611
					c0.156-0.21,0.112-0.51-0.097-0.666c-0.21-0.156-0.509-0.113-0.666,0.097l-0.457,0.612l-0.457,0.612
					c-0.157,0.21-0.113,0.51,0.096,0.666C155.317,228.914,155.617,228.871,155.773,228.661"/>
			</g>
		</g>
		<g clip-path="url(#SVGID_4_)">
			<g>
				<defs>
					<rect id="SVGID_51_" x="156.146" y="227.593" width="1.864" height="2.176"/>
				</defs>
				<clipPath id="SVGID_52_">
					<use xlink:href="#SVGID_51_"  overflow="visible"/>
				</clipPath>
				<path clip-path="url(#SVGID_52_)" fill="#E6E6E6" d="M157.002,229.578l0.457-0.613l0.457-0.612
					c0.157-0.21,0.113-0.51-0.096-0.666c-0.21-0.155-0.509-0.112-0.666,0.098l-0.457,0.611l-0.457,0.613
					c-0.157,0.21-0.113,0.509,0.096,0.666C156.546,229.831,156.845,229.788,157.002,229.578"/>
			</g>
		</g>
		<g clip-path="url(#SVGID_4_)">
			<g>
				<defs>
					<rect id="SVGID_53_" x="157.372" y="228.474" width="1.865" height="2.177"/>
				</defs>
				<clipPath id="SVGID_54_">
					<use xlink:href="#SVGID_53_"  overflow="visible"/>
				</clipPath>
				<path clip-path="url(#SVGID_54_)" fill="#E6E6E6" d="M158.38,228.665l-0.457,0.613l-0.457,0.611
					c-0.157,0.211-0.113,0.51,0.096,0.666c0.21,0.156,0.509,0.113,0.666-0.097l0.457-0.612l0.457-0.612
					c0.157-0.21,0.113-0.509-0.096-0.666C158.836,228.412,158.537,228.455,158.38,228.665"/>
			</g>
		</g>
		<g clip-path="url(#SVGID_4_)">
			<g>
				<defs>
					<rect id="SVGID_55_" x="158.601" y="229.391" width="1.864" height="2.177"/>
				</defs>
				<clipPath id="SVGID_56_">
					<use xlink:href="#SVGID_55_"  overflow="visible"/>
				</clipPath>
				<path clip-path="url(#SVGID_56_)" fill="#E6E6E6" d="M159.609,229.582l-0.457,0.613l-0.458,0.611
					c-0.156,0.21-0.112,0.509,0.097,0.666c0.21,0.156,0.509,0.113,0.666-0.097l0.457-0.612l0.457-0.612
					c0.157-0.211,0.113-0.51-0.096-0.666C160.065,229.329,159.765,229.372,159.609,229.582"/>
			</g>
		</g>
		<g clip-path="url(#SVGID_4_)">
			<g>
				<defs>
					<rect id="SVGID_57_" x="159.778" y="230.304" width="1.864" height="2.175"/>
				</defs>
				<clipPath id="SVGID_58_">
					<use xlink:href="#SVGID_57_"  overflow="visible"/>
				</clipPath>
				<path clip-path="url(#SVGID_58_)" fill="#E6E6E6" d="M160.786,230.494l-0.457,0.613l-0.457,0.611
					c-0.157,0.211-0.113,0.51,0.096,0.666c0.21,0.156,0.509,0.113,0.666-0.097l0.457-0.612l0.457-0.612
					c0.157-0.21,0.113-0.509-0.096-0.666C161.242,230.241,160.943,230.284,160.786,230.494"/>
			</g>
		</g>
		<g clip-path="url(#SVGID_4_)">
			<g>
				<defs>
					<rect id="SVGID_59_" x="156.707" y="224.296" width="1.864" height="2.175"/>
				</defs>
				<clipPath id="SVGID_60_">
					<use xlink:href="#SVGID_59_"  overflow="visible"/>
				</clipPath>
				<path clip-path="url(#SVGID_60_)" fill="#E6E6E6" d="M157.563,226.28l0.457-0.613l0.457-0.611
					c0.157-0.21,0.113-0.511-0.096-0.666c-0.21-0.156-0.509-0.113-0.666,0.097l-0.457,0.612l-0.457,0.612
					c-0.157,0.211-0.113,0.51,0.096,0.666C157.107,226.533,157.407,226.49,157.563,226.28"/>
			</g>
		</g>
		<g clip-path="url(#SVGID_4_)">
			<g>
				<defs>
					<rect id="SVGID_61_" x="157.935" y="225.212" width="1.865" height="2.176"/>
				</defs>
				<clipPath id="SVGID_62_">
					<use xlink:href="#SVGID_61_"  overflow="visible"/>
				</clipPath>
				<path clip-path="url(#SVGID_62_)" fill="#E6E6E6" d="M158.792,227.197l0.457-0.613l0.457-0.611
					c0.157-0.21,0.113-0.511-0.096-0.666c-0.21-0.156-0.509-0.113-0.666,0.097l-0.457,0.612l-0.457,0.612
					c-0.157,0.21-0.113,0.51,0.096,0.666C158.335,227.45,158.636,227.407,158.792,227.197"/>
			</g>
		</g>
		<g clip-path="url(#SVGID_4_)">
			<g>
				<defs>
					<rect id="SVGID_63_" x="159.162" y="226.094" width="1.864" height="2.175"/>
				</defs>
				<clipPath id="SVGID_64_">
					<use xlink:href="#SVGID_63_"  overflow="visible"/>
				</clipPath>
				<path clip-path="url(#SVGID_64_)" fill="#E6E6E6" d="M160.17,226.284l-0.457,0.613l-0.457,0.612
					c-0.157,0.21-0.113,0.509,0.096,0.666c0.21,0.155,0.509,0.112,0.666-0.098l0.457-0.611l0.457-0.613
					c0.157-0.21,0.113-0.509-0.096-0.666C160.626,226.031,160.326,226.074,160.17,226.284"/>
			</g>
		</g>
		<g clip-path="url(#SVGID_4_)">
			<g>
				<defs>
					<rect id="SVGID_65_" x="160.39" y="227.011" width="1.865" height="2.175"/>
				</defs>
				<clipPath id="SVGID_66_">
					<use xlink:href="#SVGID_65_"  overflow="visible"/>
				</clipPath>
				<path clip-path="url(#SVGID_66_)" fill="#E6E6E6" d="M161.398,227.201l-0.457,0.613l-0.457,0.611
					c-0.157,0.21-0.113,0.51,0.096,0.666c0.21,0.156,0.509,0.113,0.666-0.097l0.457-0.612l0.457-0.612
					c0.157-0.21,0.113-0.51-0.096-0.666C161.854,226.948,161.555,226.991,161.398,227.201"/>
			</g>
		</g>
		<g clip-path="url(#SVGID_4_)">
			<g>
				<defs>
					<rect id="SVGID_67_" x="161.567" y="227.923" width="1.865" height="2.175"/>
				</defs>
				<clipPath id="SVGID_68_">
					<use xlink:href="#SVGID_67_"  overflow="visible"/>
				</clipPath>
				<path clip-path="url(#SVGID_68_)" fill="#E6E6E6" d="M162.576,228.113l-0.457,0.613l-0.457,0.612
					c-0.157,0.21-0.113,0.509,0.096,0.666c0.21,0.155,0.51,0.112,0.666-0.098l0.457-0.611l0.457-0.613
					c0.157-0.21,0.113-0.509-0.096-0.666C163.032,227.86,162.733,227.903,162.576,228.113"/>
			</g>
		</g>
		<path clip-path="url(#SVGID_4_)" fill="#FA593A" d="M154.922,228.06c-0.156,0.21-0.113,0.509,0.097,0.666
			c0.209,0.156,0.509,0.113,0.665-0.097l0.458-0.613l-0.763-0.569L154.922,228.06z"/>
		<path clip-path="url(#SVGID_4_)" fill="#00AABE" d="M156.502,226.737c-0.21-0.155-0.509-0.112-0.666,0.098l-0.457,0.611
			l0.762,0.569l0.458-0.613C156.755,227.193,156.712,226.894,156.502,226.737"/>
		<g opacity="0.15" clip-path="url(#SVGID_4_)">
			<g>
				<defs>
					<rect id="SVGID_69_" x="155.034" y="226.886" width="1.008" height="1.291"/>
				</defs>
				<clipPath id="SVGID_70_">
					<use xlink:href="#SVGID_69_"  overflow="visible"/>
				</clipPath>
				<path clip-path="url(#SVGID_70_)" fill="#FFFFFF" d="M156.007,226.903c-0.038-0.029-0.093-0.021-0.121,0.018l-0.834,1.117
					c-0.029,0.038-0.021,0.093,0.017,0.122c0.039,0.028,0.093,0.021,0.122-0.018l0.834-1.117
					C156.053,226.986,156.045,226.933,156.007,226.903"/>
			</g>
		</g>
		<g clip-path="url(#SVGID_4_)">
			<g>
				<defs>
					<rect id="SVGID_71_" x="155.019" y="226.738" width="1.674" height="2.081"/>
				</defs>
				<clipPath id="SVGID_72_">
					<use xlink:href="#SVGID_71_"  overflow="visible"/>
				</clipPath>
				<path clip-path="url(#SVGID_72_)" fill="#E6E6E6" d="M155.685,228.629l0.457-0.613l0.457-0.612
					c0.157-0.21,0.113-0.509-0.096-0.666l-1.484,1.988C155.229,228.882,155.529,228.839,155.685,228.629"/>
			</g>
		</g>
		<path clip-path="url(#SVGID_4_)" fill="#FA593A" d="M156.151,228.977c-0.156,0.21-0.113,0.509,0.097,0.666
			c0.209,0.156,0.509,0.113,0.665-0.097l0.457-0.613l-0.762-0.569L156.151,228.977z"/>
		<path clip-path="url(#SVGID_4_)" fill="#00AABE" d="M157.731,227.654c-0.21-0.156-0.509-0.113-0.666,0.098l-0.457,0.611
			l0.762,0.569l0.458-0.612C157.984,228.11,157.941,227.811,157.731,227.654"/>
		<g opacity="0.15" clip-path="url(#SVGID_4_)">
			<g>
				<defs>
					<rect id="SVGID_73_" x="156.263" y="227.803" width="1.007" height="1.291"/>
				</defs>
				<clipPath id="SVGID_74_">
					<use xlink:href="#SVGID_73_"  overflow="visible"/>
				</clipPath>
				<path clip-path="url(#SVGID_74_)" fill="#FFFFFF" d="M157.235,227.82c-0.038-0.029-0.093-0.021-0.122,0.018l-0.834,1.117
					c-0.028,0.038-0.02,0.093,0.018,0.122c0.038,0.028,0.093,0.02,0.122-0.019l0.834-1.117
					C157.281,227.903,157.273,227.849,157.235,227.82"/>
			</g>
		</g>
		<g clip-path="url(#SVGID_4_)">
			<g>
				<defs>
					<rect id="SVGID_75_" x="156.248" y="227.655" width="1.674" height="2.081"/>
				</defs>
				<clipPath id="SVGID_76_">
					<use xlink:href="#SVGID_75_"  overflow="visible"/>
				</clipPath>
				<path clip-path="url(#SVGID_76_)" fill="#E6E6E6" d="M156.913,229.546l0.457-0.613l0.457-0.612
					c0.157-0.21,0.113-0.51-0.096-0.666l-1.484,1.988C156.457,229.799,156.757,229.756,156.913,229.546"/>
			</g>
		</g>
		<path clip-path="url(#SVGID_4_)" fill="#FA593A" d="M157.377,229.858c-0.156,0.21-0.113,0.509,0.097,0.665
			c0.209,0.156,0.509,0.113,0.665-0.097l0.457-0.612l-0.762-0.569L157.377,229.858z"/>
		<path clip-path="url(#SVGID_4_)" fill="#00AABE" d="M158.957,228.536c-0.21-0.156-0.509-0.113-0.666,0.097l-0.457,0.612
			l0.762,0.568l0.458-0.611C159.21,228.992,159.167,228.692,158.957,228.536"/>
		<g opacity="0.15" clip-path="url(#SVGID_4_)">
			<g>
				<defs>
					<rect id="SVGID_77_" x="157.489" y="228.684" width="1.007" height="1.291"/>
				</defs>
				<clipPath id="SVGID_78_">
					<use xlink:href="#SVGID_77_"  overflow="visible"/>
				</clipPath>
				<path clip-path="url(#SVGID_78_)" fill="#FFFFFF" d="M158.462,228.701c-0.038-0.028-0.093-0.021-0.122,0.019l-0.834,1.116
					c-0.028,0.038-0.02,0.094,0.018,0.122c0.038,0.028,0.093,0.021,0.122-0.018l0.834-1.117
					C158.508,228.784,158.5,228.73,158.462,228.701"/>
			</g>
		</g>
		<g clip-path="url(#SVGID_4_)">
			<g>
				<defs>
					<rect id="SVGID_79_" x="157.474" y="228.536" width="1.674" height="2.081"/>
				</defs>
				<clipPath id="SVGID_80_">
					<use xlink:href="#SVGID_79_"  overflow="visible"/>
				</clipPath>
				<path clip-path="url(#SVGID_80_)" fill="#E6E6E6" d="M158.14,230.427l0.457-0.613l0.457-0.611
					c0.157-0.21,0.113-0.51-0.096-0.666l-1.484,1.987C157.684,230.68,157.983,230.637,158.14,230.427"/>
			</g>
		</g>
		<path clip-path="url(#SVGID_4_)" fill="#FA593A" d="M158.605,230.774c-0.156,0.21-0.113,0.51,0.097,0.666
			c0.209,0.156,0.509,0.112,0.665-0.097l0.457-0.613l-0.762-0.568L158.605,230.774z"/>
		<path clip-path="url(#SVGID_4_)" fill="#00AABE" d="M160.186,229.453c-0.21-0.156-0.509-0.113-0.666,0.097l-0.457,0.612
			l0.762,0.568l0.458-0.611C160.439,229.909,160.396,229.609,160.186,229.453"/>
		<g opacity="0.15" clip-path="url(#SVGID_4_)">
			<g>
				<defs>
					<rect id="SVGID_81_" x="158.718" y="229.601" width="1.007" height="1.291"/>
				</defs>
				<clipPath id="SVGID_82_">
					<use xlink:href="#SVGID_81_"  overflow="visible"/>
				</clipPath>
				<path clip-path="url(#SVGID_82_)" fill="#FFFFFF" d="M159.69,229.618c-0.038-0.029-0.093-0.021-0.122,0.018l-0.833,1.117
					c-0.029,0.038-0.021,0.094,0.017,0.122c0.038,0.028,0.093,0.021,0.122-0.018l0.834-1.118
					C159.736,229.701,159.728,229.647,159.69,229.618"/>
			</g>
		</g>
		<g clip-path="url(#SVGID_4_)">
			<g>
				<defs>
					<rect id="SVGID_83_" x="158.702" y="229.453" width="1.674" height="2.081"/>
				</defs>
				<clipPath id="SVGID_84_">
					<use xlink:href="#SVGID_83_"  overflow="visible"/>
				</clipPath>
				<path clip-path="url(#SVGID_84_)" fill="#E6E6E6" d="M159.368,231.344l0.457-0.613l0.458-0.611
					c0.156-0.21,0.112-0.51-0.097-0.666l-1.484,1.987C158.912,231.597,159.212,231.554,159.368,231.344"/>
			</g>
		</g>
		<path clip-path="url(#SVGID_4_)" fill="#FA593A" d="M159.783,231.688c-0.156,0.21-0.113,0.509,0.097,0.666
			c0.209,0.155,0.509,0.112,0.665-0.098l0.457-0.612l-0.762-0.569L159.783,231.688z"/>
		<path clip-path="url(#SVGID_4_)" fill="#00AABE" d="M161.363,230.365c-0.21-0.156-0.509-0.113-0.666,0.097l-0.457,0.612
			l0.762,0.568l0.458-0.611C161.616,230.821,161.573,230.521,161.363,230.365"/>
		<g opacity="0.15" clip-path="url(#SVGID_4_)">
			<g>
				<defs>
					<rect id="SVGID_85_" x="159.895" y="230.513" width="1.007" height="1.291"/>
				</defs>
				<clipPath id="SVGID_86_">
					<use xlink:href="#SVGID_85_"  overflow="visible"/>
				</clipPath>
				<path clip-path="url(#SVGID_86_)" fill="#FFFFFF" d="M160.868,230.53c-0.038-0.028-0.093-0.021-0.121,0.019l-0.834,1.116
					c-0.029,0.038-0.021,0.094,0.017,0.122c0.038,0.028,0.093,0.021,0.122-0.018l0.834-1.118
					C160.914,230.613,160.905,230.56,160.868,230.53"/>
			</g>
		</g>
		<g clip-path="url(#SVGID_4_)">
			<g>
				<defs>
					<rect id="SVGID_87_" x="159.88" y="230.365" width="1.674" height="2.082"/>
				</defs>
				<clipPath id="SVGID_88_">
					<use xlink:href="#SVGID_87_"  overflow="visible"/>
				</clipPath>
				<path clip-path="url(#SVGID_88_)" fill="#E6E6E6" d="M160.545,232.256l0.457-0.613l0.457-0.611
					c0.157-0.21,0.113-0.509-0.096-0.666l-1.484,1.987C160.089,232.509,160.389,232.466,160.545,232.256"/>
			</g>
		</g>
		<path clip-path="url(#SVGID_4_)" fill="#FA593A" d="M156.712,225.679c-0.156,0.21-0.113,0.51,0.097,0.665
			c0.209,0.157,0.509,0.114,0.665-0.096l0.458-0.613l-0.763-0.568L156.712,225.679z"/>
		<path clip-path="url(#SVGID_4_)" fill="#00AABE" d="M158.292,224.357c-0.21-0.156-0.509-0.113-0.666,0.097l-0.457,0.612
			l0.762,0.568l0.458-0.611C158.545,224.813,158.502,224.513,158.292,224.357"/>
		<g opacity="0.15" clip-path="url(#SVGID_4_)">
			<g>
				<defs>
					<rect id="SVGID_89_" x="156.824" y="224.505" width="1.007" height="1.291"/>
				</defs>
				<clipPath id="SVGID_90_">
					<use xlink:href="#SVGID_89_"  overflow="visible"/>
				</clipPath>
				<path clip-path="url(#SVGID_90_)" fill="#FFFFFF" d="M157.796,224.522c-0.038-0.029-0.093-0.021-0.122,0.018l-0.833,1.117
					c-0.029,0.038-0.021,0.094,0.017,0.122s0.093,0.021,0.122-0.018l0.834-1.118C157.842,224.605,157.834,224.551,157.796,224.522"
					/>
			</g>
		</g>
		<g clip-path="url(#SVGID_4_)">
			<g>
				<defs>
					<rect id="SVGID_91_" x="156.809" y="224.357" width="1.674" height="2.082"/>
				</defs>
				<clipPath id="SVGID_92_">
					<use xlink:href="#SVGID_91_"  overflow="visible"/>
				</clipPath>
				<path clip-path="url(#SVGID_92_)" fill="#E6E6E6" d="M157.474,226.248l0.457-0.613l0.458-0.612
					c0.156-0.21,0.112-0.51-0.097-0.666l-1.483,1.988C157.018,226.501,157.318,226.458,157.474,226.248"/>
			</g>
		</g>
		<path clip-path="url(#SVGID_4_)" fill="#FA593A" d="M157.94,226.596c-0.156,0.21-0.113,0.509,0.097,0.666
			c0.209,0.156,0.509,0.113,0.665-0.097l0.458-0.613l-0.763-0.569L157.94,226.596z"/>
		<path clip-path="url(#SVGID_4_)" fill="#00AABE" d="M159.521,225.273c-0.21-0.155-0.509-0.112-0.666,0.098l-0.457,0.611
			l0.763,0.569l0.457-0.612C159.773,225.729,159.73,225.43,159.521,225.273"/>
		<g opacity="0.15" clip-path="url(#SVGID_4_)">
			<g>
				<defs>
					<rect id="SVGID_93_" x="158.052" y="225.422" width="1.008" height="1.291"/>
				</defs>
				<clipPath id="SVGID_94_">
					<use xlink:href="#SVGID_93_"  overflow="visible"/>
				</clipPath>
				<path clip-path="url(#SVGID_94_)" fill="#FFFFFF" d="M159.025,225.439c-0.038-0.029-0.093-0.021-0.121,0.018l-0.835,1.117
					c-0.028,0.038-0.02,0.093,0.018,0.122c0.039,0.028,0.093,0.021,0.122-0.018l0.834-1.117
					C159.071,225.522,159.063,225.469,159.025,225.439"/>
			</g>
		</g>
		<g clip-path="url(#SVGID_4_)">
			<g>
				<defs>
					<rect id="SVGID_95_" x="158.037" y="225.274" width="1.674" height="2.081"/>
				</defs>
				<clipPath id="SVGID_96_">
					<use xlink:href="#SVGID_95_"  overflow="visible"/>
				</clipPath>
				<path clip-path="url(#SVGID_96_)" fill="#E6E6E6" d="M158.703,227.165l0.457-0.613l0.457-0.612
					c0.157-0.21,0.113-0.51-0.096-0.666l-1.484,1.988C158.247,227.418,158.547,227.375,158.703,227.165"/>
			</g>
		</g>
		<path clip-path="url(#SVGID_4_)" fill="#FA593A" d="M159.167,227.478c-0.156,0.21-0.113,0.509,0.097,0.666
			c0.209,0.155,0.509,0.111,0.665-0.098l0.457-0.612l-0.762-0.569L159.167,227.478z"/>
		<path clip-path="url(#SVGID_4_)" fill="#00AABE" d="M160.747,226.155c-0.21-0.156-0.509-0.113-0.666,0.097l-0.457,0.612
			l0.762,0.569l0.458-0.612C161,226.611,160.957,226.312,160.747,226.155"/>
		<g opacity="0.15" clip-path="url(#SVGID_4_)">
			<g>
				<defs>
					<rect id="SVGID_97_" x="159.279" y="226.304" width="1.007" height="1.29"/>
				</defs>
				<clipPath id="SVGID_98_">
					<use xlink:href="#SVGID_97_"  overflow="visible"/>
				</clipPath>
				<path clip-path="url(#SVGID_98_)" fill="#FFFFFF" d="M160.251,226.32c-0.038-0.028-0.093-0.021-0.122,0.019l-0.834,1.117
					c-0.028,0.038-0.02,0.093,0.018,0.122c0.038,0.027,0.093,0.02,0.122-0.019l0.834-1.118
					C160.297,226.403,160.289,226.349,160.251,226.32"/>
			</g>
		</g>
		<g clip-path="url(#SVGID_4_)">
			<g>
				<defs>
					<rect id="SVGID_99_" x="159.263" y="226.155" width="1.674" height="2.082"/>
				</defs>
				<clipPath id="SVGID_100_">
					<use xlink:href="#SVGID_99_"  overflow="visible"/>
				</clipPath>
				<path clip-path="url(#SVGID_100_)" fill="#E6E6E6" d="M159.929,228.046l0.457-0.612l0.458-0.612
					c0.156-0.21,0.112-0.509-0.097-0.666l-1.484,1.988C159.473,228.299,159.773,228.256,159.929,228.046"/>
			</g>
		</g>
		<path clip-path="url(#SVGID_4_)" fill="#FA593A" d="M160.396,228.395c-0.156,0.21-0.113,0.509,0.097,0.666
			c0.209,0.155,0.509,0.112,0.665-0.098l0.458-0.612l-0.763-0.569L160.396,228.395z"/>
		<path clip-path="url(#SVGID_4_)" fill="#00AABE" d="M161.976,227.072c-0.21-0.156-0.509-0.113-0.666,0.097l-0.457,0.612
			l0.762,0.568l0.458-0.611C162.229,227.528,162.186,227.228,161.976,227.072"/>
		<g opacity="0.15" clip-path="url(#SVGID_4_)">
			<g>
				<defs>
					<rect id="SVGID_101_" x="160.507" y="227.22" width="1.008" height="1.291"/>
				</defs>
				<clipPath id="SVGID_102_">
					<use xlink:href="#SVGID_101_"  overflow="visible"/>
				</clipPath>
				<path clip-path="url(#SVGID_102_)" fill="#FFFFFF" d="M161.48,227.237c-0.038-0.028-0.093-0.021-0.122,0.019l-0.833,1.116
					c-0.029,0.038-0.021,0.094,0.017,0.122c0.038,0.028,0.093,0.021,0.122-0.018l0.834-1.118
					C161.526,227.32,161.518,227.267,161.48,227.237"/>
			</g>
		</g>
		<g clip-path="url(#SVGID_4_)">
			<g>
				<defs>
					<rect id="SVGID_103_" x="160.492" y="227.072" width="1.674" height="2.082"/>
				</defs>
				<clipPath id="SVGID_104_">
					<use xlink:href="#SVGID_103_"  overflow="visible"/>
				</clipPath>
				<path clip-path="url(#SVGID_104_)" fill="#E6E6E6" d="M161.158,228.963l0.457-0.613l0.458-0.611
					c0.156-0.21,0.112-0.51-0.097-0.666l-1.484,1.987C160.702,229.216,161.001,229.173,161.158,228.963"/>
			</g>
		</g>
		<path clip-path="url(#SVGID_4_)" fill="#FA593A" d="M161.573,229.307c-0.156,0.21-0.113,0.509,0.097,0.666
			c0.209,0.155,0.509,0.111,0.665-0.098l0.457-0.612l-0.762-0.569L161.573,229.307z"/>
		<path clip-path="url(#SVGID_4_)" fill="#00AABE" d="M163.153,227.984c-0.21-0.156-0.509-0.113-0.666,0.097l-0.457,0.612
			l0.762,0.569l0.458-0.612C163.406,228.44,163.363,228.141,163.153,227.984"/>
		<g opacity="0.15" clip-path="url(#SVGID_4_)">
			<g>
				<defs>
					<rect id="SVGID_105_" x="161.684" y="228.133" width="1.008" height="1.291"/>
				</defs>
				<clipPath id="SVGID_106_">
					<use xlink:href="#SVGID_105_"  overflow="visible"/>
				</clipPath>
				<path clip-path="url(#SVGID_106_)" fill="#FFFFFF" d="M162.657,228.15c-0.038-0.029-0.093-0.021-0.121,0.018l-0.834,1.117
					c-0.029,0.038-0.021,0.093,0.017,0.122c0.039,0.027,0.093,0.02,0.122-0.019l0.834-1.118
					C162.703,228.232,162.695,228.179,162.657,228.15"/>
			</g>
		</g>
		<g clip-path="url(#SVGID_4_)">
			<g>
				<defs>
					<rect id="SVGID_107_" x="161.669" y="227.984" width="1.674" height="2.082"/>
				</defs>
				<clipPath id="SVGID_108_">
					<use xlink:href="#SVGID_107_"  overflow="visible"/>
				</clipPath>
				<path clip-path="url(#SVGID_108_)" fill="#E6E6E6" d="M162.335,229.875l0.457-0.612l0.457-0.612
					c0.157-0.21,0.113-0.509-0.096-0.666l-1.484,1.988C161.879,230.128,162.179,230.085,162.335,229.875"/>
			</g>
		</g>
		<g clip-path="url(#SVGID_4_)">
			<g>
				<defs>
					<rect id="SVGID_109_" x="155.674" y="223.709" width="8.471" height="7.319"/>
				</defs>
				<clipPath id="SVGID_110_">
					<use xlink:href="#SVGID_109_"  overflow="visible"/>
				</clipPath>
				<path clip-path="url(#SVGID_110_)" fill="#F2F2F2" d="M163.808,228.084l-5.639-4.208c-0.371-0.277-0.897-0.201-1.173,0.17
					l-1.322,1.771l6.983,5.211l1.322-1.771C164.255,228.886,164.179,228.36,163.808,228.084"/>
			</g>
		</g>
		<path clip-path="url(#SVGID_4_)" fill="#FFFFFF" d="M182.831,204.044l-0.154-0.154c-0.755-0.755-1.99-0.755-2.744,0
			l-12.485,12.484c-0.571,0.571-0.708,1.416-0.416,2.12l-2.692,2.692c-0.306,0.306-0.306,0.807,0,1.112l0.082,0.082
			c0.306,0.307,0.807,0.307,1.113,0l2.692-2.691c0.704,0.292,1.549,0.153,2.119-0.416l12.485-12.485
			C183.585,206.033,183.585,204.799,182.831,204.044"/>
		
			<rect x="178.907" y="205.1" transform="matrix(0.7074 0.7069 -0.7069 0.7074 197.6754 -67.1184)" clip-path="url(#SVGID_4_)" fill="#2D3C50" width="1.98" height="0.147"/>
		
			<rect x="177.923" y="206.084" transform="matrix(0.7074 0.7069 -0.7069 0.7074 198.0829 -66.1358)" clip-path="url(#SVGID_4_)" fill="#2D3C50" width="1.981" height="0.147"/>
		
			<rect x="178.882" y="205.594" transform="matrix(0.7073 0.7069 -0.7069 0.7073 197.8842 -66.6241)" clip-path="url(#SVGID_4_)" fill="#2D3C50" width="1.04" height="0.146"/>
		
			<rect x="176.945" y="207.062" transform="matrix(0.7072 0.707 -0.707 0.7072 198.5354 -65.1537)" clip-path="url(#SVGID_4_)" fill="#2D3C50" width="1.979" height="0.147"/>
		
			<rect x="177.903" y="206.574" transform="matrix(0.7069 0.7073 -0.7073 0.7069 198.4709 -65.6326)" clip-path="url(#SVGID_4_)" fill="#2D3C50" width="1.041" height="0.146"/>
		
			<rect x="176.011" y="207.996" transform="matrix(0.7071 0.7071 -0.7071 0.7071 198.9697 -64.2167)" clip-path="url(#SVGID_4_)" fill="#2D3C50" width="1.98" height="0.146"/>
		
			<rect x="176.97" y="207.508" transform="matrix(0.7064 0.7078 -0.7078 0.7064 199.0384 -64.6843)" clip-path="url(#SVGID_4_)" fill="#2D3C50" width="1.04" height="0.145"/>
		
			<rect x="175.102" y="208.906" transform="matrix(0.7071 0.7071 -0.7071 0.7071 199.3466 -63.3073)" clip-path="url(#SVGID_4_)" fill="#2D3C50" width="1.98" height="0.145"/>
		
			<rect x="176.061" y="208.417" transform="matrix(0.7069 0.7073 -0.7073 0.7069 199.2342 -63.7889)" clip-path="url(#SVGID_4_)" fill="#2D3C50" width="1.041" height="0.146"/>
		
			<rect x="174.123" y="209.885" transform="matrix(0.707 0.7072 -0.7072 0.707 199.7996 -62.3239)" clip-path="url(#SVGID_4_)" fill="#2D3C50" width="1.98" height="0.146"/>
		
			<rect x="175.081" y="209.395" transform="matrix(0.7071 0.7071 -0.7071 0.7071 199.5494 -62.8174)" clip-path="url(#SVGID_4_)" fill="#2D3C50" width="1.041" height="0.147"/>
		
			<rect x="173.189" y="210.818" transform="matrix(0.7071 0.7071 -0.7071 0.7071 200.1385 -61.3949)" clip-path="url(#SVGID_4_)" fill="#2D3C50" width="1.98" height="0.147"/>
		
			<rect x="174.148" y="210.328" transform="matrix(0.7073 0.7069 -0.7069 0.7073 199.8454 -61.8923)" clip-path="url(#SVGID_4_)" fill="#2D3C50" width="1.04" height="0.147"/>
		
			<rect x="172.275" y="211.732" transform="matrix(0.7075 0.7067 -0.7067 0.7075 200.3748 -60.4944)" clip-path="url(#SVGID_4_)" fill="#2D3C50" width="1.98" height="0.147"/>
		
			<rect x="173.233" y="211.244" transform="matrix(0.7076 0.7066 -0.7066 0.7076 200.1342 -60.9867)" clip-path="url(#SVGID_4_)" fill="#2D3C50" width="1.041" height="0.147"/>
		
			<rect x="171.295" y="212.712" transform="matrix(0.7071 0.7071 -0.7071 0.7071 200.923 -59.5009)" clip-path="url(#SVGID_4_)" fill="#2D3C50" width="1.98" height="0.146"/>
		
			<rect x="172.253" y="212.224" transform="matrix(0.7069 0.7073 -0.7073 0.7069 200.8108 -59.9802)" clip-path="url(#SVGID_4_)" fill="#2D3C50" width="1.041" height="0.145"/>
		
			<rect x="170.362" y="213.646" transform="matrix(0.7067 0.7075 -0.7075 0.7067 201.4522 -58.5517)" clip-path="url(#SVGID_4_)" fill="#2D3C50" width="1.981" height="0.145"/>
		
			<rect x="171.32" y="213.157" transform="matrix(0.7071 0.7071 -0.7071 0.7071 201.1073 -59.056)" clip-path="url(#SVGID_4_)" fill="#2D3C50" width="1.041" height="0.145"/>
		
			<rect x="169.41" y="214.598" transform="matrix(0.707 0.7072 -0.7072 0.707 201.7517 -57.6098)" clip-path="url(#SVGID_4_)" fill="#2D3C50" width="1.98" height="0.146"/>
		
			<rect x="170.368" y="214.109" transform="matrix(0.7071 0.7071 -0.7071 0.7071 201.5014 -58.104)" clip-path="url(#SVGID_4_)" fill="#2D3C50" width="1.041" height="0.146"/>
		
			<rect x="168.431" y="215.576" transform="matrix(0.7072 0.707 -0.707 0.7072 202.0618 -56.6418)" clip-path="url(#SVGID_4_)" fill="#2D3C50" width="1.979" height="0.146"/>
		
			<rect x="169.39" y="215.087" transform="matrix(0.708 0.7062 -0.7062 0.708 201.5454 -57.1676)" clip-path="url(#SVGID_4_)" fill="#2D3C50" width="1.04" height="0.147"/>
		
			<rect x="167.498" y="216.51" transform="matrix(0.7072 0.707 -0.707 0.7072 202.4489 -55.7086)" clip-path="url(#SVGID_4_)" fill="#2D3C50" width="1.979" height="0.146"/>
		
			<rect x="168.456" y="216.021" transform="matrix(0.7069 0.7073 -0.7073 0.7069 202.3841 -56.1809)" clip-path="url(#SVGID_4_)" fill="#2D3C50" width="1.041" height="0.146"/>
		<path clip-path="url(#SVGID_4_)" fill="#FA593A" d="M178.728,208.021l-0.029-0.029c-0.14-0.14-0.371-0.14-0.511,0l-12.544,12.544
			c-0.141,0.142-0.141,0.371,0,0.512l0.029,0.028c0.14,0.142,0.37,0.142,0.511,0l12.544-12.543
			C178.869,208.393,178.869,208.162,178.728,208.021"/>
		<g clip-path="url(#SVGID_4_)">
			<g>
				<defs>
					<rect id="SVGID_111_" x="164.381" y="203.967" width="19.016" height="18.644"/>
				</defs>
				<clipPath id="SVGID_112_">
					<use xlink:href="#SVGID_111_"  overflow="visible"/>
				</clipPath>
				<path clip-path="url(#SVGID_112_)" fill="#E6E6E6" d="M165.534,222.381l2.692-2.692c0.705,0.292,1.549,0.155,2.12-0.416
					l12.484-12.484c0.755-0.754,0.755-1.989,0-2.744l-0.077-0.077L164.38,222.34l0.041,0.041
					C164.727,222.687,165.228,222.687,165.534,222.381"/>
			</g>
		</g>
		<path clip-path="url(#SVGID_4_)" fill="#ED4A4F" d="M231.715,216.029h2.304l0.539-1.761c0.032-0.106,0.137-0.178,0.248-0.168
			s0.202,0.095,0.218,0.206l0.444,3.249l0.96-3.777c0.027-0.11,0.13-0.186,0.241-0.181c0.114,0.006,0.208,0.09,0.227,0.202
			l1.215,7.679l0.009,0.058l0.105,0.666l0.316-1.18l0.029-0.109l1.321-4.918c0.027-0.105,0.123-0.177,0.23-0.177h2.781h0.207h2.938
			c0.461-2.963-1.754-4.838-4.037-5.178c-2.522-0.376-3.938,2.448-4.117,2.83c-0.18-0.382-1.597-3.206-4.118-2.83
			c-2.337,0.349-4.598,2.306-3.998,5.389h1.787H231.715z"/>
		<path clip-path="url(#SVGID_4_)" fill="#ED4A4F" d="M242.753,216.296h-2.447l-1.039,3.871l-0.033,0.119l-0.839,3.126
			c-0.027,0.104-0.123,0.177-0.23,0.177c-0.004,0-0.007,0-0.013,0c-0.112-0.006-0.206-0.09-0.224-0.201l-0.205-1.297l-0.008-0.05
			l-1.11-7.019l-0.976,3.842c-0.028,0.11-0.133,0.186-0.245,0.18c-0.114-0.006-0.208-0.094-0.223-0.207l-0.464-3.388l-0.273,0.889
			c-0.031,0.101-0.124,0.17-0.229,0.17H231.9h-0.144h-1.866c0.096,0.339,0.225,0.691,0.392,1.056
			c2.322,3.917,4.67,3.354,7.569,8.551c0.015,0.024,0.028,0.048,0.042,0.074c0.015-0.026,0.028-0.05,0.043-0.074
			c2.9-5.196,5.247-4.634,7.569-8.551c0.202-0.44,0.347-0.862,0.445-1.268h-2.996H242.753z"/>
		<path clip-path="url(#SVGID_4_)" fill="#FFFFFF" d="M243.11,215.817h-0.207h-2.781c-0.107,0-0.203,0.073-0.23,0.177l-1.321,4.919
			l-0.029,0.109l-0.316,1.179l-0.105-0.665l-0.009-0.058l-1.215-7.679c-0.019-0.112-0.112-0.196-0.227-0.201
			c-0.111-0.005-0.214,0.069-0.241,0.18l-0.96,3.777l-0.444-3.249c-0.016-0.111-0.106-0.196-0.218-0.206
			c-0.111-0.009-0.216,0.061-0.248,0.169l-0.539,1.759h-2.304h-0.149h-1.787c0.031,0.157,0.067,0.316,0.112,0.479h1.865h0.146h2.294
			c0.105,0,0.198-0.069,0.229-0.169l0.272-0.891l0.464,3.39c0.016,0.112,0.109,0.199,0.225,0.205
			c0.111,0.008,0.216-0.068,0.244-0.18l0.976-3.84l1.11,7.018l0.008,0.051l0.206,1.296c0.018,0.11,0.109,0.194,0.223,0.201
			c0.005,0.001,0.009,0.001,0.013,0.001c0.108,0,0.203-0.072,0.231-0.179l0.839-3.126l0.032-0.118l1.039-3.872h2.446h0.202h2.997
			c0.039-0.161,0.074-0.321,0.098-0.478H243.11z"/>
		<g clip-path="url(#SVGID_4_)">
			<g>
				<defs>
					<rect id="SVGID_113_" x="237.895" y="210.606" width="8.216" height="15.579"/>
				</defs>
				<clipPath id="SVGID_114_">
					<use xlink:href="#SVGID_113_"  overflow="visible"/>
				</clipPath>
				<path clip-path="url(#SVGID_114_)" fill="#E6E6E6" d="M245.506,217.563c0.202-0.44,0.347-0.863,0.445-1.268
					c0.039-0.162,0.074-0.322,0.098-0.479c0.46-2.962-1.754-4.837-4.038-5.177c-2.518-0.375-3.933,2.439-4.115,2.828v12.718
					c0.014-0.026,0.026-0.049,0.042-0.073C240.837,220.918,243.185,221.48,245.506,217.563"/>
			</g>
		</g>
		<g clip-path="url(#SVGID_4_)">
			<g>
				<defs>
					<rect id="SVGID_115_" x="176.738" y="217.354" width="19.229" height="20.813"/>
				</defs>
				<clipPath id="SVGID_116_">
					<use xlink:href="#SVGID_115_"  overflow="visible"/>
				</clipPath>
				
					<rect x="179.825" y="219.411" transform="matrix(0.8901 0.4558 -0.4558 0.8901 124.2809 -59.9009)" clip-path="url(#SVGID_116_)" fill="#2D3C50" width="13.054" height="16.699"/>
			</g>
		</g>
		<path clip-path="url(#SVGID_4_)" fill="#2D3C50" d="M188.048,237.839l-10.864-5.562c-0.209-0.107-0.291-0.362-0.184-0.571
			l7.271-14.201c0.106-0.209,0.362-0.291,0.57-0.184l10.864,5.562c0.209,0.107,0.291,0.362,0.184,0.57l-7.27,14.202
			C188.512,237.863,188.256,237.946,188.048,237.839"/>
		<g clip-path="url(#SVGID_4_)">
			<g>
				<defs>
					<rect id="SVGID_117_" x="178.448" y="219.039" width="15.972" height="17.434"/>
				</defs>
				<clipPath id="SVGID_118_">
					<use xlink:href="#SVGID_117_"  overflow="visible"/>
				</clipPath>
				
					<rect x="181.07" y="220.708" transform="matrix(0.8901 0.4558 -0.4558 0.8901 124.2931 -59.94)" clip-path="url(#SVGID_118_)" fill="#B3B3B3" width="10.728" height="14.095"/>
			</g>
		</g>
		
			<rect x="181.142" y="220.51" transform="matrix(0.8901 0.4557 -0.4557 0.8901 124.2194 -59.9846)" clip-path="url(#SVGID_4_)" fill="#FFFFFF" width="10.727" height="14.209"/>
		
			<rect x="184.88" y="227.742" transform="matrix(0.8901 0.4558 -0.4558 0.8901 124.5047 -60.7205)" clip-path="url(#SVGID_4_)" fill="#526F81" width="6.537" height="0.086"/>
		
			<rect x="184.47" y="228.545" transform="matrix(0.8901 0.4557 -0.4557 0.8901 124.797 -60.4385)" clip-path="url(#SVGID_4_)" fill="#526F81" width="6.536" height="0.086"/>
		
			<rect x="184.071" y="229.323" transform="matrix(0.8901 0.4557 -0.4557 0.8901 125.1079 -60.1714)" clip-path="url(#SVGID_4_)" fill="#526F81" width="6.536" height="0.086"/>
		
			<rect x="183.66" y="230.128" transform="matrix(0.8901 0.4558 -0.4558 0.8901 125.4676 -59.9038)" clip-path="url(#SVGID_4_)" fill="#526F81" width="6.536" height="0.085"/>
		
			<rect x="183.258" y="230.912" transform="matrix(0.8901 0.4557 -0.4557 0.8901 125.7426 -59.6261)" clip-path="url(#SVGID_4_)" fill="#526F81" width="6.536" height="0.086"/>
		
			<rect x="182.846" y="231.716" transform="matrix(0.8901 0.4558 -0.4558 0.8901 126.1022 -59.3585)" clip-path="url(#SVGID_4_)" fill="#526F81" width="6.536" height="0.086"/>
		
			<rect x="182.448" y="232.494" transform="matrix(0.8901 0.4558 -0.4558 0.8901 126.4131 -59.0912)" clip-path="url(#SVGID_4_)" fill="#526F81" width="6.536" height="0.086"/>
		
			<rect x="182.036" y="233.297" transform="matrix(0.8901 0.4557 -0.4557 0.8901 126.6853 -58.8057)" clip-path="url(#SVGID_4_)" fill="#526F81" width="6.536" height="0.086"/>
		
			<rect x="181.713" y="233.975" transform="matrix(0.8901 0.4557 -0.4557 0.8901 126.9686 -58.5859)" clip-path="url(#SVGID_4_)" fill="#526F81" width="6.536" height="0.086"/>
		
			<rect x="182.301" y="225.274" transform="matrix(0.8901 0.4557 -0.4557 0.8901 123.1634 -58.6149)" clip-path="url(#SVGID_4_)" fill="#526F81" width="1.674" height="1.674"/>
		
			<rect x="180.965" y="227.886" transform="matrix(0.8899 0.4562 -0.4562 0.8899 124.3552 -57.749)" clip-path="url(#SVGID_4_)" fill="#526F81" width="1.674" height="1.672"/>
		
			<rect x="179.838" y="230.084" transform="matrix(0.8901 0.4557 -0.4557 0.8901 125.0851 -56.964)" clip-path="url(#SVGID_4_)" fill="#526F81" width="1.674" height="1.674"/>
		<path clip-path="url(#SVGID_4_)" fill="#2DB4BE" d="M192.271,222.362l-0.522-0.269c0.058-0.264-0.064-0.545-0.316-0.675
			l-0.827-0.423c0.179-0.097,0.332-0.247,0.432-0.442c0.264-0.516,0.06-1.146-0.455-1.41c-0.515-0.264-1.146-0.061-1.41,0.455
			c-0.1,0.195-0.132,0.407-0.106,0.609l-0.755-0.386c-0.253-0.13-0.552-0.065-0.733,0.138l-0.593-0.304
			c-0.317-0.162-0.706-0.037-0.868,0.28l-0.11,0.215c-0.021,0.041-0.037,0.084-0.049,0.126l6.408,3.281
			c0.028-0.035,0.053-0.072,0.074-0.113l0.11-0.216C192.712,222.912,192.587,222.524,192.271,222.362 M189.812,220.65
			c-0.297-0.152-0.415-0.517-0.263-0.814c0.153-0.297,0.517-0.414,0.814-0.262s0.415,0.516,0.263,0.812
			C190.472,220.686,190.108,220.802,189.812,220.65"/>
		<path clip-path="url(#SVGID_4_)" fill="#00AABE" d="M185.959,220.277l6.407,3.28c0.028-0.034,0.053-0.072,0.074-0.113l0.086-0.167
			l-6.433-3.294l-0.086,0.168C185.986,220.192,185.971,220.234,185.959,220.277"/>
		<g opacity="0.15" clip-path="url(#SVGID_4_)">
			<g>
				<defs>
					<rect id="SVGID_119_" x="176.738" y="217.274" width="13.849" height="17.847"/>
				</defs>
				<clipPath id="SVGID_120_">
					<use xlink:href="#SVGID_119_"  overflow="visible"/>
				</clipPath>
				<path clip-path="url(#SVGID_120_)" fill="#FFFFFF" d="M189.6,219.757c0.172-0.235,0.494-0.32,0.762-0.183
					c0.002,0.001,0.003,0.002,0.004,0.003l0.221-0.431c-0.002-0.001-0.003-0.002-0.004-0.003c-0.499-0.255-1.104-0.069-1.381,0.409
					l-4.361-2.231c-0.155-0.08-0.335-0.054-0.461,0.049l-0.032-0.016l-0.077,0.15L177,231.706l-0.263,0.512l5.671,2.903
					l7.726-15.091L189.6,219.757z"/>
			</g>
		</g>
		<path clip-path="url(#SVGID_4_)" fill="#FA593A" d="M189.77,225.091c-0.5,0.978-1.697,1.363-2.674,0.863
			c-0.976-0.5-1.362-1.697-0.862-2.674s1.696-1.363,2.673-0.863C189.883,222.917,190.27,224.114,189.77,225.091"/>
		<path clip-path="url(#SVGID_4_)" fill="#FFFFFF" d="M189.281,224.44l-0.706-0.361c-0.052-0.026-0.073-0.091-0.046-0.142
			l0.361-0.707c0.027-0.052,0.006-0.116-0.045-0.142l-0.447-0.229c-0.051-0.025-0.115-0.006-0.142,0.046l-0.361,0.707
			c-0.027,0.053-0.09,0.072-0.142,0.047l-0.707-0.362c-0.051-0.027-0.115-0.006-0.142,0.046l-0.228,0.446
			c-0.027,0.052-0.006,0.114,0.046,0.142l0.706,0.362c0.052,0.025,0.073,0.09,0.046,0.141l-0.362,0.707
			c-0.026,0.052-0.006,0.115,0.046,0.143l0.446,0.228c0.052,0.027,0.116,0.006,0.142-0.045l0.362-0.707
			c0.027-0.052,0.09-0.072,0.142-0.046l0.706,0.361c0.052,0.027,0.116,0.007,0.142-0.046l0.229-0.445
			C189.353,224.53,189.333,224.468,189.281,224.44"/>
		<path clip-path="url(#SVGID_4_)" fill="#FAD39C" d="M187.823,235.48c0.344-0.344,0.344-0.9,0-1.245
			c-0.344-0.344-0.901-0.344-1.245,0l-2.905,2.906c-0.344,0.343-0.344,0.901,0,1.244c0.343,0.344,0.901,0.344,1.245,0
			L187.823,235.48z"/>
		<path clip-path="url(#SVGID_4_)" fill="#FAD39C" d="M210.363,231.98c-0.011-0.014-0.019-0.028-0.026-0.043l-1.452-1.33
			l0.001-0.001c-0.1-0.087-0.163-0.207-0.163-0.341v-2.887c0-0.265,0.242-0.479,0.539-0.479h0.23c0.297,0,0.539,0.215,0.539,0.479
			v2.043l0.241,0.214v-0.261v-4.101c0-0.28,0.255-0.508,0.57-0.508c0.316,0,0.572,0.228,0.572,0.508v3.652h0.157v-4.158
			c0-0.28,0.256-0.508,0.57-0.508c0.316,0,0.572,0.228,0.572,0.508v4.158h0.166v-3.44c0-0.28,0.256-0.507,0.572-0.507
			c0.314,0,0.571,0.227,0.571,0.507v3.44h0.191v-2.056c0-0.239,0.219-0.434,0.489-0.434c0.27,0,0.489,0.194,0.489,0.434v3.787
			c0,0.031-0.014,0.058-0.021,0.086l0.021,0.044l-0.489,1.178V250h-4.342V231.98z"/>
		<path clip-path="url(#SVGID_4_)" fill="#FAD39C" d="M175.996,218.286l2.116-4.821c0.25-0.569-0.009-1.234-0.579-1.485
			c-0.571-0.25-1.236,0.009-1.486,0.58l-2.116,4.82c-0.251,0.57,0.009,1.235,0.579,1.485
			C175.08,219.116,175.746,218.856,175.996,218.286"/>
		<path clip-path="url(#SVGID_4_)" fill="#FAD39C" d="M174.21,209.954l-0.57-0.533l-1.12-1.049c-0.588-0.55-1.408-0.63-1.831-0.178
			c-0.424,0.453-0.29,1.266,0.298,1.815l0.57,0.533l0.356,0.334l0.194,0.183l0.57,0.532c0.588,0.551,1.408,0.631,1.831,0.178
			C174.931,211.317,174.798,210.504,174.21,209.954"/>
		<path clip-path="url(#SVGID_4_)" fill="#FAD39C" d="M171.347,210.769L171.347,210.769l-0.57-0.533
			c-0.588-0.55-1.408-0.63-1.831-0.178c-0.423,0.452-0.289,1.265,0.299,1.814l0.569,0.534l2.182,2.042
			c0.588,0.55,1.408,0.629,1.831,0.177c0.423-0.451,0.29-1.265-0.298-1.814L171.347,210.769z"/>
		<path clip-path="url(#SVGID_4_)" fill="#FAD39C" d="M169.932,212.963l-0.911-0.852c-0.588-0.552-1.408-0.63-1.831-0.179
			c-0.423,0.452-0.289,1.266,0.299,1.815l1.12,1.049l0.125,0.117c0.588,0.55,1.408,0.63,1.831,0.178
			c0.423-0.453,0.29-1.266-0.298-1.815L169.932,212.963z"/>
		<path clip-path="url(#SVGID_4_)" fill="#FAD39C" d="M242.115,226.836l0.628-4.882c0.074-0.578-0.334-1.105-0.911-1.181
			c-0.578-0.074-1.105,0.334-1.18,0.912l-0.629,4.882c-0.074,0.577,0.334,1.106,0.912,1.18
			C241.513,227.822,242.041,227.414,242.115,226.836"/>
		<path clip-path="url(#SVGID_4_)" fill="#FAD39C" d="M163.624,231.445c0.299-0.384,0.232-0.937-0.151-1.236
			c-0.383-0.299-0.936-0.231-1.236,0.151l-2.531,3.236c-0.299,0.383-0.232,0.937,0.151,1.235c0.383,0.3,0.936,0.231,1.236-0.151
			L163.624,231.445z"/>
		<path clip-path="url(#SVGID_4_)" fill="#FA593A" d="M220.538,212.835c0.863,1.234,2.58,1.539,3.814,0.676
			c1.235-0.863,1.539-2.58,0.677-3.815l-2.523-3.608l-4.491,3.139L220.538,212.835z"/>
		<path clip-path="url(#SVGID_4_)" fill="#FFFFFF" d="M216.168,201.802c-1.234,0.863-1.539,2.58-0.676,3.814l2.523,3.609
			l4.489-3.139l-2.521-3.609C219.12,201.242,217.403,200.938,216.168,201.802"/>
		<g opacity="0.15" clip-path="url(#SVGID_4_)">
			<g>
				<defs>
					<rect id="SVGID_121_" x="215.963" y="204.721" width="5.602" height="7.582"/>
				</defs>
				<clipPath id="SVGID_122_">
					<use xlink:href="#SVGID_121_"  overflow="visible"/>
				</clipPath>
				<path clip-path="url(#SVGID_122_)" fill="#FFFFFF" d="M216.176,204.811c-0.225,0.158-0.28,0.472-0.123,0.696l4.602,6.583
					c0.157,0.227,0.471,0.281,0.696,0.123c0.226-0.157,0.28-0.47,0.124-0.696l-4.603-6.583
					C216.715,204.709,216.401,204.653,216.176,204.811"/>
			</g>
		</g>
		<g clip-path="url(#SVGID_4_)">
			<g>
				<defs>
					<rect id="SVGID_123_" x="216.168" y="201.31" width="9.352" height="12.2"/>
				</defs>
				<clipPath id="SVGID_124_">
					<use xlink:href="#SVGID_123_"  overflow="visible"/>
				</clipPath>
				<path clip-path="url(#SVGID_124_)" fill="#E6E6E6" d="M225.028,209.695l-2.522-3.608l-2.523-3.609
					c-0.863-1.234-2.579-1.539-3.814-0.676l8.185,11.709C225.587,212.646,225.892,210.931,225.028,209.695"/>
			</g>
		</g>
		<path clip-path="url(#SVGID_4_)" fill="#FFFFFF" d="M227.552,205.703c1.09,1.56,0.71,3.707-0.85,4.797
			c-1.56,1.091-3.707,0.71-4.797-0.85c-1.091-1.559-0.711-3.707,0.85-4.797C224.313,203.764,226.462,204.145,227.552,205.703"/>
		<g clip-path="url(#SVGID_4_)">
			<g>
				<defs>
					<rect id="SVGID_125_" x="222.764" y="204.996" width="3.958" height="5.404"/>
				</defs>
				<clipPath id="SVGID_126_">
					<use xlink:href="#SVGID_125_"  overflow="visible"/>
				</clipPath>
				<path clip-path="url(#SVGID_126_)" fill="#E6E6E6" d="M222.892,205.05c-0.135,0.095-0.169,0.282-0.074,0.418l3.358,4.805
					c0.095,0.135,0.283,0.169,0.418,0.073c0.135-0.094,0.168-0.281,0.074-0.418l-3.358-4.804
					C223.215,204.989,223.026,204.956,222.892,205.05"/>
			</g>
		</g>
		<g clip-path="url(#SVGID_4_)">
			<g>
				<defs>
					<rect id="SVGID_127_" x="222.754" y="204.232" width="5.419" height="6.269"/>
				</defs>
				<clipPath id="SVGID_128_">
					<use xlink:href="#SVGID_127_"  overflow="visible"/>
				</clipPath>
				<path clip-path="url(#SVGID_128_)" fill="#E6E6E6" d="M227.552,205.703c-1.09-1.559-3.238-1.939-4.797-0.85l3.947,5.646
					C228.262,209.41,228.642,207.263,227.552,205.703"/>
			</g>
		</g>
		<path clip-path="url(#SVGID_4_)" fill="#FAD39C" d="M219.53,209.115c-0.101-0.426-0.528-0.689-0.956-0.589
			c-0.426,0.101-0.689,0.529-0.589,0.956l0.856,3.604c0.101,0.428,0.529,0.69,0.956,0.59c0.426-0.102,0.689-0.529,0.589-0.955
			L219.53,209.115z"/>
		
			<rect x="203.327" y="221.213" transform="matrix(0.6733 -0.7394 0.7394 0.6733 -96.2435 225.0415)" clip-path="url(#SVGID_4_)" fill="#2D3C50" width="6.399" height="0.427"/>
		
			<rect x="214.214" y="230.863" transform="matrix(0.6734 -0.7393 0.7393 0.6734 -99.7897 236.2678)" clip-path="url(#SVGID_4_)" fill="#2D3C50" width="6.598" height="0.426"/>
		
			<rect x="210.415" y="227.388" transform="matrix(0.6734 -0.7393 0.7393 0.6734 -98.6187 231.9638)" clip-path="url(#SVGID_4_)" fill="#2D3C50" width="5.637" height="0.427"/>
		
			<rect x="207.399" y="224.503" transform="matrix(0.6733 -0.7394 0.7394 0.6733 -97.4836 228.8225)" clip-path="url(#SVGID_4_)" fill="#2D3C50" width="5.554" height="0.427"/>
		<path clip-path="url(#SVGID_4_)" fill="#FFFFFF" d="M203.894,223.322l-0.349,0.383c-0.064,0.071-0.06,0.184,0.015,0.243
			c1.249,1.034,2.983,1.198,4.53,0.567c0.117-0.389,0.282-0.769,0.495-1.133c-1.428,0.924-3.226,0.935-4.46-0.074
			C204.055,223.251,203.955,223.256,203.894,223.322"/>
		<path clip-path="url(#SVGID_4_)" fill="#FFFFFF" d="M209.232,223.798c-0.021,0.038-0.041,0.079-0.061,0.119
			c0.036-0.025,0.073-0.049,0.109-0.075l0.002,0.001c1.495-1.034,3.441-1.036,4.709,0.118c1.236,1.127,1.435,2.994,0.618,4.559
			c0.344-0.246,0.707-0.446,1.082-0.6c0.502-1.661,0.133-3.444-1.126-4.59c-1.296-1.181-3.18-1.361-4.823-0.631
			c-0.127,0.375-0.298,0.743-0.514,1.095L209.232,223.798z"/>
		<path clip-path="url(#SVGID_4_)" fill="#FFFFFF" d="M215.136,229.173l-0.003-0.003c0.022-0.038,0.043-0.078,0.064-0.116
			c-0.037,0.024-0.076,0.046-0.113,0.072l-0.002-0.001c-0.33,0.248-0.681,0.452-1.043,0.612c-0.549,1.633-0.245,3.403,0.919,4.588
			c0.049,0.049,0.131,0.047,0.177-0.004l0.414-0.455c0.043-0.047,0.04-0.118-0.005-0.163
			C214.414,232.536,214.281,230.694,215.136,229.173"/>
		
			<rect x="208.464" y="226.04" transform="matrix(0.6734 -0.7393 0.7393 0.6734 -98.0907 230.4752)" clip-path="url(#SVGID_4_)" fill="#FFFFFF" width="6.67" height="0.427"/>
		
			<rect x="205.424" y="222.326" transform="matrix(0.6733 -0.7394 0.7394 0.6733 -96.635 226.3854)" clip-path="url(#SVGID_4_)" fill="#FFFFFF" width="4.846" height="0.426"/>
		
			<rect x="213.308" y="229.704" transform="matrix(0.6734 -0.7393 0.7393 0.6734 -99.4102 234.8062)" clip-path="url(#SVGID_4_)" fill="#FFFFFF" width="5.487" height="0.426"/>
		<path clip-path="url(#SVGID_4_)" fill="#2D3C50" d="M215.692,227.921c-0.375,0.153-0.738,0.353-1.082,0.598
			c-0.036,0.026-0.074,0.05-0.109,0.076l-0.002-0.001c-1.496,1.034-3.441,1.036-4.709-0.119c-1.236-1.125-1.435-2.994-0.618-4.558
			c0.021-0.039,0.038-0.08,0.061-0.119l-0.003-0.003c0.217-0.352,0.387-0.72,0.513-1.096c0.545-1.618,0.25-3.373-0.89-4.558
			c-0.067-0.069-0.181-0.065-0.246,0.006l-0.349,0.384c-0.061,0.065-0.057,0.164,0.005,0.229c1.106,1.168,1.231,2.994,0.384,4.504
			l0.004,0.003c-0.024,0.038-0.044,0.077-0.066,0.116c-0.212,0.365-0.378,0.745-0.494,1.133c-0.503,1.662-0.133,3.445,1.126,4.591
			c1.296,1.181,3.18,1.361,4.823,0.631c0.362-0.16,0.713-0.364,1.043-0.612l0.002,0.001c0.037-0.026,0.075-0.048,0.113-0.072
			c1.439-0.931,3.253-0.935,4.488,0.099c0.05,0.041,0.121,0.037,0.165-0.01l0.412-0.453c0.046-0.051,0.042-0.131-0.011-0.174
			C219.001,227.459,217.252,227.285,215.692,227.921"/>
		<path clip-path="url(#SVGID_4_)" fill="#FA593A" d="M217.169,228.588c0.335,0.305,0.854,0.28,1.159-0.055
			c0.307-0.336,0.281-0.854-0.054-1.16s-0.854-0.281-1.16,0.055C216.809,227.763,216.834,228.282,217.169,228.588"/>
		<path clip-path="url(#SVGID_4_)" fill="#FA593A" d="M214.474,234.413c0.335,0.305,0.854,0.28,1.16-0.055
			c0.306-0.336,0.281-0.854-0.054-1.159c-0.336-0.307-0.855-0.282-1.16,0.054C214.113,233.588,214.139,234.107,214.474,234.413"/>
		<path clip-path="url(#SVGID_4_)" fill="#FA593A" d="M211.394,223.379c0.335,0.306,0.855,0.281,1.16-0.054
			c0.307-0.336,0.281-0.855-0.054-1.16c-0.335-0.306-0.855-0.282-1.16,0.054C211.034,222.555,211.059,223.074,211.394,223.379"/>
		<path clip-path="url(#SVGID_4_)" fill="#FA593A" d="M209.06,221.207c0.335,0.306,0.854,0.281,1.16-0.054
			c0.306-0.336,0.28-0.854-0.055-1.16s-0.854-0.281-1.16,0.055C208.699,220.383,208.725,220.902,209.06,221.207"/>
		<path clip-path="url(#SVGID_4_)" fill="#FA593A" d="M203.669,224.564c0.335,0.306,0.854,0.281,1.16-0.054
			c0.305-0.336,0.28-0.854-0.055-1.16s-0.854-0.282-1.159,0.055C203.309,223.74,203.334,224.26,203.669,224.564"/>
		<path clip-path="url(#SVGID_4_)" fill="#FA593A" d="M214.762,225.924c0.335,0.305,0.854,0.28,1.16-0.055
			c0.306-0.336,0.28-0.854-0.055-1.16s-0.854-0.281-1.16,0.055C214.401,225.099,214.427,225.618,214.762,225.924"/>
		<path clip-path="url(#SVGID_4_)" fill="#FA593A" d="M208.897,229.438c0.335,0.306,0.855,0.281,1.16-0.054
			c0.306-0.336,0.281-0.854-0.054-1.16s-0.855-0.281-1.16,0.055C208.537,228.614,208.562,229.134,208.897,229.438"/>
		<path clip-path="url(#SVGID_4_)" fill="#FFFFFF" d="M207.854,227.266c0.335,0.306,0.854,0.281,1.16-0.054
			c0.306-0.336,0.28-0.855-0.055-1.16c-0.335-0.306-0.854-0.282-1.159,0.054C207.494,226.44,207.52,226.961,207.854,227.266"/>
		<path clip-path="url(#SVGID_4_)" fill="#FFFFFF" d="M208.323,219.472c0.335,0.306,0.855,0.281,1.16-0.054
			c0.306-0.336,0.281-0.854-0.054-1.16s-0.855-0.282-1.16,0.055C207.963,218.647,207.988,219.167,208.323,219.472"/>
		<path clip-path="url(#SVGID_4_)" fill="#FFFFFF" d="M210.782,230.292c0.335,0.306,0.855,0.281,1.16-0.054
			c0.307-0.336,0.281-0.854-0.054-1.16s-0.855-0.281-1.16,0.055C210.423,229.468,210.447,229.987,210.782,230.292"/>
		<path clip-path="url(#SVGID_4_)" fill="#FFFFFF" d="M219.142,229.208c0.335,0.306,0.855,0.281,1.16-0.054
			c0.307-0.336,0.281-0.855-0.054-1.16c-0.335-0.306-0.855-0.282-1.16,0.054C218.782,228.383,218.807,228.903,219.142,229.208"/>
		<path clip-path="url(#SVGID_4_)" fill="#2D3C50" d="M205.544,225.067c0.335,0.305,0.854,0.281,1.16-0.054
			c0.306-0.336,0.281-0.855-0.055-1.16c-0.335-0.306-0.854-0.282-1.159,0.054C205.184,224.242,205.209,224.763,205.544,225.067"/>
		<path clip-path="url(#SVGID_4_)" fill="#2D3C50" d="M213.667,232.433c0.335,0.305,0.855,0.28,1.16-0.055
			c0.306-0.336,0.281-0.854-0.054-1.16s-0.855-0.28-1.16,0.055C213.307,231.607,213.332,232.127,213.667,232.433"/>
		<path clip-path="url(#SVGID_4_)" fill="#2D3C50" d="M213.676,224.192c0.335,0.305,0.854,0.281,1.16-0.054
			c0.306-0.336,0.28-0.855-0.055-1.16c-0.335-0.306-0.854-0.282-1.159,0.054C213.315,223.367,213.341,223.888,213.676,224.192"/>
		<g clip-path="url(#SVGID_4_)">
			<g>
				<defs>
					<rect id="SVGID_129_" x="206.397" y="218.043" width="14.118" height="13.34"/>
				</defs>
				<clipPath id="SVGID_130_">
					<use xlink:href="#SVGID_129_"  overflow="visible"/>
				</clipPath>
				<path clip-path="url(#SVGID_130_)" fill="#F2F2F2" d="M220.302,229.154c0.306-0.335,0.281-0.855-0.054-1.16
					c-0.277-0.252-0.677-0.276-0.98-0.09c-0.257-0.112-0.522-0.196-0.795-0.254c-0.046-0.103-0.11-0.197-0.198-0.277
					c-0.335-0.305-0.854-0.281-1.16,0.054c-0.044,0.05-0.079,0.103-0.11,0.157c-0.441,0.051-0.884,0.162-1.312,0.337
					c-0.094,0.038-0.185,0.088-0.276,0.132c0.092-0.044,0.183-0.094,0.276-0.132c0.202-0.666,0.26-1.352,0.18-2.008
					c0.018-0.015,0.034-0.027,0.049-0.044c0.307-0.335,0.282-0.855-0.054-1.16c-0.119-0.108-0.263-0.174-0.411-0.2
					c-0.123-0.245-0.269-0.479-0.44-0.696c0.083-0.291,0.005-0.617-0.234-0.834c-0.249-0.228-0.6-0.271-0.889-0.142
					c-0.388-0.227-0.805-0.386-1.239-0.477c-0.041-0.07-0.09-0.138-0.153-0.195c-0.336-0.306-0.854-0.281-1.16,0.054
					c-0.02,0.022-0.034,0.047-0.052,0.07c-0.521,0.051-1.045,0.188-1.546,0.41c0.153-0.454,0.237-0.919,0.258-1.379
					c0.08-0.042,0.155-0.097,0.219-0.167c0.307-0.335,0.281-0.855-0.054-1.16c-0.102-0.093-0.222-0.152-0.348-0.184
					c-0.059-0.194-0.13-0.385-0.215-0.567c0.168-0.322,0.107-0.729-0.173-0.985c-0.336-0.305-0.855-0.28-1.16,0.056
					c-0.253,0.276-0.276,0.678-0.089,0.981l-1.783,1.958l0.314,0.287l1.778-1.952c0.122,0.065,0.256,0.098,0.39,0.097
					c0.053,0.114,0.1,0.231,0.139,0.353c-0.004,0.004-0.01,0.007-0.014,0.011c-0.256,0.281-0.276,0.688-0.082,0.993l-1.251,1.373
					l0.316,0.288l1.205-1.324c-0.03,0.638-0.21,1.287-0.547,1.887l0.004,0.002c-0.005,0.009-0.009,0.018-0.015,0.025l0.584,0.532
					c0.005-0.009,0.009-0.018,0.014-0.026c-0.005,0.009-0.009,0.018-0.014,0.026l0.038,0.034c0.008-0.005,0.016-0.011,0.023-0.017
					l0.001,0.002c0.592-0.408,1.254-0.653,1.917-0.732c0.016,0.036,0.037,0.068,0.058,0.102l-1.227,1.349l0.314,0.287l1.229-1.348
					c0.322,0.165,0.726,0.105,0.981-0.175c0.031-0.035,0.058-0.073,0.082-0.112c0.271,0.076,0.529,0.187,0.775,0.328
					c-0.009,0.169,0.033,0.338,0.127,0.484l-1.856,2.04l0.314,0.287l1.857-2.039c0.166,0.085,0.352,0.109,0.529,0.075
					c0.106,0.138,0.198,0.282,0.28,0.433c-0.211,0.276-0.221,0.649-0.039,0.935l-1.488,1.634l0.315,0.287l1.488-1.633
					c0.043,0.022,0.087,0.041,0.133,0.055c0.096,0.798-0.058,1.646-0.462,2.421c-0.037,0.025-0.074,0.049-0.11,0.075l-0.002-0.001
					c-0.008,0.005-0.016,0.011-0.023,0.016l0.647,0.59c0.004-0.009,0.007-0.019,0.012-0.026l-0.003-0.003
					c0.024-0.038,0.043-0.078,0.065-0.116c0.568-0.367,1.194-0.588,1.819-0.659c0.017,0.028,0.034,0.058,0.056,0.086l-1.242,1.362
					l0.316,0.287l1.267-1.392c0.311,0.126,0.677,0.057,0.916-0.205c0.015-0.018,0.025-0.036,0.039-0.053
					c0.174,0.045,0.344,0.104,0.509,0.176c0.01,0.153,0.062,0.304,0.157,0.432l-1.828,2.008l0.315,0.287l1.85-2.03
					C219.685,229.487,220.061,229.42,220.302,229.154"/>
			</g>
		</g>
		<path clip-path="url(#SVGID_4_)" fill="#FAFAFA" d="M170.866,229.504l0.404-0.403l3.423-3.423l-0.167-0.167l-1.321-1.321
			l-0.153-0.153l-3.423,3.424l-0.402,0.401c-1.592-0.882-3.635-0.651-4.987,0.7c-0.37,0.37-0.655,0.792-0.858,1.243
			c-0.305,0.68-0.42,1.424-0.345,2.152c0.096,0.922,0.497,1.818,1.203,2.525c0.707,0.706,1.603,1.107,2.525,1.203
			c0.733,0.076,1.481-0.041,2.163-0.351c0.447-0.201,0.866-0.485,1.233-0.853C171.51,233.134,171.742,231.096,170.866,229.504"/>
		
			<rect x="172.93" y="225.956" transform="matrix(0.7068 0.7074 -0.7074 0.7068 210.6901 -56.4016)" clip-path="url(#SVGID_4_)" fill="#2D3C50" width="0.924" height="0.068"/>
		
			<rect x="172.472" y="226.414" transform="matrix(0.7068 0.7074 -0.7074 0.7068 210.8798 -55.9434)" clip-path="url(#SVGID_4_)" fill="#2D3C50" width="0.924" height="0.068"/>
		
			<rect x="173.074" y="226.341" transform="matrix(0.7076 0.7066 -0.7066 0.7076 210.6335 -56.2765)" clip-path="url(#SVGID_4_)" fill="#2D3C50" width="0.485" height="0.068"/>
		
			<rect x="172.016" y="226.87" transform="matrix(0.7074 0.7068 -0.7068 0.7074 210.8573 -55.5155)" clip-path="url(#SVGID_4_)" fill="#2D3C50" width="0.923" height="0.068"/>
		
			<rect x="172.618" y="226.797" transform="matrix(0.7071 0.7071 -0.7071 0.7071 211.0237 -55.7933)" clip-path="url(#SVGID_4_)" fill="#2D3C50" width="0.485" height="0.068"/>
		
			<rect x="171.58" y="227.306" transform="matrix(0.7068 0.7074 -0.7074 0.7068 211.2491 -55.0513)" clip-path="url(#SVGID_4_)" fill="#2D3C50" width="0.924" height="0.068"/>
		
			<rect x="172.183" y="227.233" transform="matrix(0.7071 0.7071 -0.7071 0.7071 211.2039 -55.3582)" clip-path="url(#SVGID_4_)" fill="#2D3C50" width="0.485" height="0.068"/>
		
			<rect x="171.157" y="227.73" transform="matrix(0.7068 0.7074 -0.7074 0.7068 211.4247 -54.6273)" clip-path="url(#SVGID_4_)" fill="#2D3C50" width="0.924" height="0.068"/>
		
			<rect x="171.759" y="227.657" transform="matrix(0.7071 0.7071 -0.7071 0.7071 211.3795 -54.9344)" clip-path="url(#SVGID_4_)" fill="#2D3C50" width="0.485" height="0.068"/>
		
			<rect x="170.7" y="228.186" transform="matrix(0.7071 0.7071 -0.7071 0.7071 211.5079 -54.1859)" clip-path="url(#SVGID_4_)" fill="#2D3C50" width="0.924" height="0.068"/>
		
			<rect x="171.303" y="228.113" transform="matrix(0.7071 0.7071 -0.7071 0.7071 211.5686 -54.4779)" clip-path="url(#SVGID_4_)" fill="#2D3C50" width="0.485" height="0.068"/>
		
			<rect x="170.265" y="228.621" transform="matrix(0.7068 0.7074 -0.7074 0.7068 211.794 -53.7352)" clip-path="url(#SVGID_4_)" fill="#2D3C50" width="0.924" height="0.068"/>
		
			<rect x="170.867" y="228.548" transform="matrix(0.7071 0.7071 -0.7071 0.7071 211.7488 -54.0428)" clip-path="url(#SVGID_4_)" fill="#2D3C50" width="0.485" height="0.068"/>
		<path clip-path="url(#SVGID_4_)" fill="#F2F2F2" d="M174.396,225.821l-1.488-1.488c-0.118-0.118-0.118-0.311,0-0.429
			c0.118-0.119,0.311-0.119,0.429-0.001l1.488,1.489c0.118,0.118,0.118,0.311,0,0.429
			C174.708,225.939,174.514,225.939,174.396,225.821"/>
		<path clip-path="url(#SVGID_4_)" fill="#FAFAFA" d="M174.441,225.737l-1.448-1.448c-0.111-0.111-0.111-0.291,0-0.401
			c0.11-0.109,0.29-0.109,0.4,0l1.449,1.448c0.11,0.11,0.11,0.291,0,0.401C174.732,225.847,174.551,225.847,174.441,225.737"/>
		<path clip-path="url(#SVGID_4_)" fill="#FA593A" d="M163.681,229.895c-0.285,0.633-0.392,1.326-0.321,2.004
			c0.089,0.859,0.462,1.693,1.12,2.352c0.657,0.658,1.492,1.031,2.35,1.12c0.682,0.07,1.379-0.037,2.014-0.325
			c0.416-0.188,0.806-0.453,1.148-0.795l-5.512-5.512C164.135,229.082,163.869,229.476,163.681,229.895"/>
		<g opacity="0.5" clip-path="url(#SVGID_4_)">
			<g>
				<defs>
					<rect id="SVGID_131_" x="166.305" y="232.048" width="0.996" height="0.997"/>
				</defs>
				<clipPath id="SVGID_132_">
					<use xlink:href="#SVGID_131_"  overflow="visible"/>
				</clipPath>
				<path clip-path="url(#SVGID_132_)" fill="#C1272D" d="M167.155,232.898c-0.195,0.195-0.51,0.195-0.705,0
					c-0.194-0.194-0.194-0.51,0-0.704c0.195-0.195,0.51-0.195,0.705,0C167.35,232.389,167.35,232.704,167.155,232.898"/>
			</g>
		</g>
		<g opacity="0.5" clip-path="url(#SVGID_4_)">
			<g>
				<defs>
					<rect id="SVGID_133_" x="163.833" y="230.848" width="0.906" height="0.905"/>
				</defs>
				<clipPath id="SVGID_134_">
					<use xlink:href="#SVGID_133_"  overflow="visible"/>
				</clipPath>
				<path clip-path="url(#SVGID_134_)" fill="#C1272D" d="M164.606,231.621c-0.177,0.177-0.464,0.177-0.64,0
					c-0.177-0.178-0.177-0.464,0-0.641c0.176-0.177,0.463-0.177,0.64,0C164.783,231.157,164.783,231.443,164.606,231.621"/>
			</g>
		</g>
		<g opacity="0.5" clip-path="url(#SVGID_4_)">
			<g>
				<defs>
					<rect id="SVGID_135_" x="168.169" y="233.774" width="0.834" height="0.834"/>
				</defs>
				<clipPath id="SVGID_136_">
					<use xlink:href="#SVGID_135_"  overflow="visible"/>
				</clipPath>
				<path clip-path="url(#SVGID_136_)" fill="#C1272D" d="M168.292,233.896c-0.163,0.163-0.163,0.427,0,0.59
					c0.163,0.163,0.427,0.163,0.59,0s0.163-0.427,0-0.59S168.454,233.733,168.292,233.896"/>
			</g>
		</g>
		<g opacity="0.5" clip-path="url(#SVGID_4_)">
			<g>
				<defs>
					<rect id="SVGID_137_" x="165.302" y="232.512" width="0.631" height="0.63"/>
				</defs>
				<clipPath id="SVGID_138_">
					<use xlink:href="#SVGID_137_"  overflow="visible"/>
				</clipPath>
				<path clip-path="url(#SVGID_138_)" fill="#C1272D" d="M165.84,233.05c-0.123,0.123-0.323,0.123-0.446,0s-0.123-0.323,0-0.446
					s0.323-0.123,0.446,0S165.963,232.927,165.84,233.05"/>
			</g>
		</g>
		<g opacity="0.5" clip-path="url(#SVGID_4_)">
			<g>
				<defs>
					<rect id="SVGID_139_" x="164.483" y="229.857" width="0.607" height="0.606"/>
				</defs>
				<clipPath id="SVGID_140_">
					<use xlink:href="#SVGID_139_"  overflow="visible"/>
				</clipPath>
				<path clip-path="url(#SVGID_140_)" fill="#C1272D" d="M165,230.375c-0.118,0.117-0.311,0.118-0.429,0
					c-0.119-0.118-0.119-0.312,0-0.43c0.118-0.119,0.311-0.119,0.429,0C165.119,230.063,165.119,230.257,165,230.375"/>
			</g>
		</g>
		<g opacity="0.5" clip-path="url(#SVGID_4_)">
			<g>
				<defs>
					<rect id="SVGID_141_" x="166.035" y="234.283" width="0.565" height="0.563"/>
				</defs>
				<clipPath id="SVGID_142_">
					<use xlink:href="#SVGID_141_"  overflow="visible"/>
				</clipPath>
				<path clip-path="url(#SVGID_142_)" fill="#C1272D" d="M166.517,234.765c-0.11,0.11-0.289,0.11-0.399,0
					c-0.111-0.11-0.111-0.289,0-0.399c0.11-0.11,0.289-0.11,0.399,0C166.627,234.476,166.627,234.654,166.517,234.765"/>
			</g>
		</g>
		<g opacity="0.5" clip-path="url(#SVGID_4_)">
			<g>
				<defs>
					<rect id="SVGID_143_" x="165.842" y="231.186" width="0.565" height="0.565"/>
				</defs>
				<clipPath id="SVGID_144_">
					<use xlink:href="#SVGID_143_"  overflow="visible"/>
				</clipPath>
				<path clip-path="url(#SVGID_144_)" fill="#C1272D" d="M166.324,231.668c-0.11,0.11-0.289,0.11-0.399,0
					c-0.111-0.109-0.111-0.289,0-0.398c0.11-0.111,0.289-0.111,0.399,0C166.434,231.379,166.434,231.559,166.324,231.668"/>
			</g>
		</g>
		<g opacity="0.5" clip-path="url(#SVGID_4_)">
			<g>
				<defs>
					<rect id="SVGID_145_" x="164.256" y="233.16" width="0.602" height="0.603"/>
				</defs>
				<clipPath id="SVGID_146_">
					<use xlink:href="#SVGID_145_"  overflow="visible"/>
				</clipPath>
				<path clip-path="url(#SVGID_146_)" fill="#C1272D" d="M164.77,233.675c0.118-0.118,0.118-0.309,0-0.427
					c-0.118-0.116-0.308-0.116-0.426,0c-0.117,0.118-0.117,0.309,0,0.427C164.462,233.792,164.652,233.791,164.77,233.675"/>
			</g>
		</g>
		<g clip-path="url(#SVGID_4_)">
			<g>
				<defs>
					<rect id="SVGID_147_" x="164.24" y="224.609" width="10.683" height="11.099"/>
				</defs>
				<clipPath id="SVGID_148_">
					<use xlink:href="#SVGID_147_"  overflow="visible"/>
				</clipPath>
				<path clip-path="url(#SVGID_148_)" fill="#F2F2F2" d="M168.928,235.336c0.447-0.202,0.866-0.486,1.233-0.854
					c1.348-1.348,1.581-3.387,0.705-4.977l0.403-0.404l3.219-3.218c0.111,0.05,0.247,0.03,0.338-0.062
					c0.059-0.059,0.088-0.137,0.088-0.215c0.024-0.093,0.001-0.196-0.073-0.27l-0.727-0.729l-9.874,9.873
					c0.707,0.707,1.603,1.108,2.525,1.203C167.497,235.761,168.246,235.645,168.928,235.336"/>
			</g>
		</g>
		<g opacity="0.15" clip-path="url(#SVGID_4_)">
			<g>
				<defs>
					<rect id="SVGID_149_" x="164.471" y="227.703" width="4.672" height="2.399"/>
				</defs>
				<clipPath id="SVGID_150_">
					<use xlink:href="#SVGID_149_"  overflow="visible"/>
				</clipPath>
				<path clip-path="url(#SVGID_150_)" fill="#FFFFFF" d="M164.635,229.962L164.635,229.962c-0.242-0.235-0.225-0.833,0.107-1.2
					c1.043-1.155,2.544-1.384,3.884-0.593c0.427,0.251,0.621,0.816,0.46,1.112c-0.16,0.3-0.514,0.324-0.807,0.156
					c-0.975-0.576-2.068-0.409-2.827,0.432C165.223,230.118,164.877,230.199,164.635,229.962"/>
			</g>
		</g>
		<path clip-path="url(#SVGID_4_)" fill="#FAFAFA" d="M233.661,229.79l-3.132-5.424v-1.306v-4.671h-0.229h-1.802h-0.208v4.671v1.306
			l-3.131,5.424c-0.495,0.857,0.123,1.927,1.112,1.927h6.275C233.537,231.717,234.156,230.647,233.661,229.79"/>
		<rect x="229.41" y="219.458" clip-path="url(#SVGID_4_)" fill="#2D3C50" width="0.891" height="0.065"/>
		<rect x="229.41" y="220.082" clip-path="url(#SVGID_4_)" fill="#2D3C50" width="0.891" height="0.066"/>
		<rect x="229.833" y="219.771" clip-path="url(#SVGID_4_)" fill="#2D3C50" width="0.468" height="0.065"/>
		<rect x="229.41" y="220.705" clip-path="url(#SVGID_4_)" fill="#2D3C50" width="0.891" height="0.066"/>
		<rect x="229.833" y="220.394" clip-path="url(#SVGID_4_)" fill="#2D3C50" width="0.468" height="0.066"/>
		<rect x="229.41" y="221.298" clip-path="url(#SVGID_4_)" fill="#2D3C50" width="0.891" height="0.066"/>
		<rect x="229.833" y="220.988" clip-path="url(#SVGID_4_)" fill="#2D3C50" width="0.468" height="0.064"/>
		<rect x="229.41" y="221.876" clip-path="url(#SVGID_4_)" fill="#2D3C50" width="0.891" height="0.066"/>
		<rect x="229.833" y="221.565" clip-path="url(#SVGID_4_)" fill="#2D3C50" width="0.468" height="0.065"/>
		<rect x="229.41" y="222.499" clip-path="url(#SVGID_4_)" fill="#2D3C50" width="0.891" height="0.066"/>
		<rect x="229.833" y="222.189" clip-path="url(#SVGID_4_)" fill="#2D3C50" width="0.468" height="0.064"/>
		<rect x="229.41" y="223.092" clip-path="url(#SVGID_4_)" fill="#2D3C50" width="0.891" height="0.066"/>
		<rect x="229.833" y="222.781" clip-path="url(#SVGID_4_)" fill="#2D3C50" width="0.468" height="0.065"/>
		<path clip-path="url(#SVGID_4_)" fill="#E6E6E6" d="M230.426,218.69h-2.03c-0.161,0-0.293-0.132-0.293-0.293
			s0.132-0.293,0.293-0.293h2.03c0.161,0,0.293,0.132,0.293,0.293S230.587,218.69,230.426,218.69"/>
		<path clip-path="url(#SVGID_4_)" fill="#FAFAFA" d="M230.398,218.603h-1.977c-0.149,0-0.272-0.123-0.272-0.273
			s0.123-0.273,0.272-0.273h1.977c0.149,0,0.272,0.123,0.272,0.273S230.548,218.603,230.398,218.603"/>
		<path clip-path="url(#SVGID_4_)" fill="#FA593A" d="M233.451,229.724l-1.992-3.45h-4.098l-1.992,3.45
			c-0.47,0.814,0.117,1.832,1.058,1.832h5.967C233.334,231.556,233.922,230.538,233.451,229.724"/>
		<g clip-path="url(#SVGID_4_)">
			<g>
				<defs>
					<rect id="SVGID_151_" x="229.41" y="218.056" width="4.425" height="13.661"/>
				</defs>
				<clipPath id="SVGID_152_">
					<use xlink:href="#SVGID_151_"  overflow="visible"/>
				</clipPath>
				<path clip-path="url(#SVGID_152_)" fill="#F2F2F2" d="M233.661,229.79l-3.132-5.424v-1.306v-4.391
					c0.11-0.042,0.188-0.147,0.188-0.272c0-0.08-0.032-0.153-0.086-0.206c-0.047-0.081-0.134-0.136-0.233-0.136h-0.988v13.661h3.138
					C233.537,231.717,234.156,230.647,233.661,229.79"/>
			</g>
		</g>
		<g opacity="0.15" clip-path="url(#SVGID_4_)">
			<g>
				<defs>
					<rect id="SVGID_153_" x="225.481" y="226.458" width="2.961" height="4.372"/>
				</defs>
				<clipPath id="SVGID_154_">
					<use xlink:href="#SVGID_153_"  overflow="visible"/>
				</clipPath>
				<path clip-path="url(#SVGID_154_)" fill="#FFFFFF" d="M228.197,226.524c-0.233-0.137-0.538-0.057-0.675,0.177l-1.975,3.387
					c-0.138,0.234-0.058,0.538,0.178,0.675c0.234,0.137,0.537,0.057,0.674-0.178l1.976-3.386
					C228.512,226.964,228.432,226.661,228.197,226.524"/>
			</g>
		</g>
		<path clip-path="url(#SVGID_4_)" fill="#FAD39C" d="M232.902,232.416l-0.149-3.528c-0.019-0.418-0.371-0.742-0.788-0.725
			c-0.418,0.019-0.742,0.371-0.725,0.788l0.15,3.529c0.018,0.418,0.371,0.742,0.788,0.724
			C232.597,233.188,232.921,232.834,232.902,232.416"/>
		<path clip-path="url(#SVGID_4_)" fill="#FAD39C" d="M170.231,232.806c0.002-0.3-0.238-0.543-0.537-0.546
			c-0.299-0.003-0.544,0.238-0.546,0.537l-0.02,2.528c-0.002,0.299,0.238,0.543,0.538,0.546c0.299,0.002,0.543-0.239,0.545-0.538
			L170.231,232.806z"/>
		<path clip-path="url(#SVGID_4_)" fill="#E4E4E4" d="M209.098,192.173c0-5.427-4.4-9.827-9.827-9.827
			c-5.428,0-9.828,4.4-9.828,9.827c0,5.428,4.4,9.827,9.828,9.827C204.697,202,209.098,197.601,209.098,192.173"/>
		<path clip-path="url(#SVGID_4_)" fill="#C8C8C8" d="M208.88,194.413c0.093-0.409,0.16-0.827,0.2-1.253l-5.34-5.34l-2.89,2.889
			l-2.767-2.767l-2.064,5.509l-1.493,2.833l5.728,5.729c0.441-0.044,0.874-0.115,1.296-0.215
			C205.189,200.939,208.049,198.062,208.88,194.413"/>
		<path clip-path="url(#SVGID_4_)" fill="#FFFFFF" d="M199.851,189.473c0-1.137,0.922-2.06,2.06-2.06h0.55
			c1.137,0,2.059,0.923,2.059,2.06v2.746h-4.668V189.473z"/>
		<path clip-path="url(#SVGID_4_)" fill="#1EAAF1" d="M202.46,197.025h-0.55c-1.138,0-2.06-0.922-2.06-2.059v-2.747h4.668v2.747
			C204.519,196.103,203.597,197.025,202.46,197.025"/>
		<path clip-path="url(#SVGID_4_)" fill="#FFFFFF" d="M198.718,194.965c0,1.137-0.922,2.06-2.059,2.06h-0.55
			c-1.137,0-2.059-0.923-2.059-2.06v-2.746h4.668V194.965z"/>
		<path clip-path="url(#SVGID_4_)" fill="#EB2D81" d="M196.109,187.414h0.549c1.137,0,2.06,0.922,2.06,2.059v2.747h-4.669v-2.747
			C194.049,188.335,194.971,187.414,196.109,187.414"/>
		<path clip-path="url(#SVGID_4_)" fill="#1EAAF1" d="M253.146,195.558v1.33h-5.417v-9.577h5.417v1.324h-3.852v2.607h3.61v1.31
			h-3.61v3.006H253.146z M244.553,196.888l-2.293-3.825h-1.545v3.825h-1.566v-9.577h2.705c1.236,0,2.151,0.232,2.745,0.695
			c0.595,0.463,0.892,1.162,0.892,2.096c0,1.192-0.62,2.042-1.86,2.548l2.705,4.238H244.553z M243.879,190.154
			c0-0.541-0.177-0.93-0.531-1.166c-0.354-0.235-0.887-0.353-1.598-0.353h-1.035v3.131h1.087c0.729,0,1.258-0.136,1.585-0.406
			C243.715,191.089,243.879,190.688,243.879,190.154 M235.189,194.229h-3.661l-0.938,2.659h-1.651l3.584-9.616h1.703l3.583,9.616
			h-1.664L235.189,194.229z M233.879,190.272c-0.065-0.174-0.156-0.45-0.271-0.825s-0.195-0.651-0.238-0.825
			c-0.118,0.537-0.291,1.124-0.519,1.762l-0.863,2.495h2.79L233.879,190.272z M226.621,188.691
			c-0.361-0.116-0.739-0.174-1.137-0.174c-0.9,0-1.607,0.318-2.122,0.956c-0.516,0.638-0.773,1.518-0.773,2.64
			c0,1.175,0.248,2.064,0.743,2.666c0.496,0.603,1.213,0.904,2.152,0.904c0.405,0,0.799-0.04,1.179-0.121s0.774-0.185,1.186-0.311
			v1.342c-0.751,0.284-1.603,0.426-2.555,0.426c-1.402,0-2.479-0.425-3.229-1.274c-0.751-0.849-1.127-2.064-1.127-3.645
			c0-0.996,0.184-1.867,0.548-2.614s0.892-1.319,1.581-1.716c0.69-0.397,1.5-0.596,2.431-0.596c0.979,0,1.882,0.205,2.712,0.615
			l-0.563,1.304C227.322,188.941,226.98,188.806,226.621,188.691 M217.621,195.938h-0.072c-0.494,0.721-1.216,1.081-2.168,1.081
			c-0.905,0-1.61-0.327-2.116-0.982c-0.507-0.655-0.76-1.575-0.76-2.758c0-1.188,0.257-2.112,0.769-2.774
			c0.515-0.662,1.225-0.993,2.134-0.993c0.952,0,1.677,0.352,2.175,1.055h0.078c-0.074-0.52-0.111-0.93-0.111-1.232v-2.639h1.546
			v10.192h-1.206L217.621,195.938z M217.621,193.292c0-0.913-0.148-1.561-0.445-1.946c-0.298-0.384-0.763-0.576-1.396-0.576
			c-0.541,0-0.958,0.219-1.251,0.659c-0.293,0.438-0.439,1.064-0.439,1.876c0,0.804,0.142,1.416,0.426,1.837
			c0.284,0.422,0.709,0.633,1.277,0.633c0.634,0,1.094-0.178,1.383-0.534c0.288-0.356,0.437-0.933,0.445-1.733V193.292z"/>
	</g>
	<polygon clip-path="url(#SVGID_2_)" fill="#FFFFFF" points="192.747,153.029 192.747,154.905 192.562,154.905 192.562,154.028 
		191.45,154.028 191.45,154.905 191.268,154.905 191.268,153.029 191.45,153.029 191.45,153.864 192.562,153.864 192.562,153.029 	
		"/>
	<polygon clip-path="url(#SVGID_2_)" fill="#FFFFFF" points="194.48,154.741 194.48,154.905 193.22,154.905 193.22,153.029 
		194.456,153.029 194.456,153.193 193.402,153.193 193.402,153.869 194.321,153.869 194.321,154.025 193.402,154.025 
		193.402,154.741 	"/>
	<path clip-path="url(#SVGID_2_)" fill="#FFFFFF" d="M194.642,154.905l0.784-1.876h0.151l0.785,1.876h-0.199l-0.243-0.586h-0.842
		l-0.241,0.586H194.642z M195.502,153.246l-0.386,0.927h0.761L195.502,153.246z"/>
	<polygon clip-path="url(#SVGID_2_)" fill="#FFFFFF" points="196.633,154.905 196.633,153.029 196.815,153.029 196.815,154.741 
		197.901,154.741 197.901,154.905 	"/>
	<polygon clip-path="url(#SVGID_2_)" fill="#FFFFFF" points="199.225,153.193 198.557,153.193 198.557,154.905 198.372,154.905 
		198.372,153.193 197.703,153.193 197.703,153.029 199.225,153.029 	"/>
	<polygon clip-path="url(#SVGID_2_)" fill="#FFFFFF" points="200.992,153.029 200.992,154.905 200.807,154.905 200.807,154.028 
		199.695,154.028 199.695,154.905 199.513,154.905 199.513,153.029 199.695,153.029 199.695,153.864 200.807,153.864 
		200.807,153.029 	"/>
	<g clip-path="url(#SVGID_2_)">
		<defs>
			<rect id="SVGID_155_" width="400" height="400"/>
		</defs>
		<clipPath id="SVGID_156_">
			<use xlink:href="#SVGID_155_"  overflow="visible"/>
		</clipPath>
		<path clip-path="url(#SVGID_156_)" fill="#FFFFFF" d="M202.02,153.954c0-0.113,0.021-0.225,0.06-0.337
			c0.04-0.112,0.098-0.212,0.173-0.3c0.076-0.088,0.17-0.16,0.28-0.215c0.111-0.056,0.236-0.083,0.378-0.083
			c0.168,0,0.31,0.038,0.428,0.113c0.118,0.076,0.206,0.175,0.264,0.296l-0.146,0.09c-0.031-0.062-0.067-0.113-0.109-0.156
			c-0.042-0.042-0.088-0.076-0.137-0.103c-0.049-0.026-0.101-0.045-0.153-0.057c-0.053-0.011-0.104-0.017-0.156-0.017
			c-0.112,0-0.212,0.023-0.299,0.069c-0.086,0.046-0.159,0.106-0.218,0.179c-0.059,0.074-0.103,0.158-0.133,0.25
			c-0.03,0.093-0.045,0.186-0.045,0.282c0,0.104,0.018,0.203,0.054,0.298c0.036,0.095,0.086,0.179,0.148,0.252
			c0.062,0.073,0.136,0.132,0.222,0.175c0.085,0.043,0.178,0.064,0.279,0.064c0.053,0,0.106-0.006,0.161-0.019
			c0.057-0.014,0.109-0.035,0.161-0.064c0.053-0.029,0.101-0.065,0.145-0.108s0.081-0.096,0.11-0.157l0.153,0.079
			c-0.029,0.071-0.072,0.132-0.126,0.186c-0.055,0.054-0.116,0.099-0.183,0.136c-0.067,0.037-0.138,0.065-0.212,0.085
			c-0.075,0.019-0.149,0.029-0.222,0.029c-0.128,0-0.246-0.028-0.354-0.085c-0.107-0.056-0.2-0.13-0.277-0.22
			c-0.078-0.091-0.138-0.194-0.181-0.309C202.042,154.191,202.02,154.074,202.02,153.954"/>
		<path clip-path="url(#SVGID_156_)" fill="#FFFFFF" d="M203.737,154.905l0.784-1.876h0.15l0.785,1.876h-0.199l-0.243-0.586h-0.842
			l-0.241,0.586H203.737z M204.598,153.246l-0.386,0.927h0.761L204.598,153.246z"/>
		<path clip-path="url(#SVGID_156_)" fill="#FFFFFF" d="M205.729,154.905v-1.876h0.79c0.081,0,0.156,0.017,0.225,0.052
			c0.068,0.034,0.128,0.079,0.177,0.135c0.05,0.055,0.088,0.118,0.115,0.188c0.026,0.071,0.041,0.142,0.041,0.214
			c0,0.069-0.01,0.135-0.03,0.197c-0.021,0.063-0.049,0.119-0.086,0.169s-0.081,0.093-0.132,0.127
			c-0.051,0.034-0.109,0.058-0.172,0.07l0.462,0.724h-0.208l-0.444-0.692h-0.555v0.692H205.729z M205.911,154.049h0.616
			c0.054,0,0.104-0.012,0.148-0.036c0.045-0.023,0.083-0.055,0.115-0.096c0.031-0.041,0.056-0.086,0.074-0.137
			c0.017-0.051,0.025-0.105,0.025-0.162c0-0.056-0.01-0.11-0.029-0.162c-0.021-0.052-0.049-0.097-0.082-0.136
			c-0.034-0.039-0.075-0.07-0.122-0.093c-0.046-0.022-0.096-0.034-0.146-0.034h-0.6V154.049z"/>
		<polygon clip-path="url(#SVGID_156_)" fill="#FFFFFF" points="208.732,154.741 208.732,154.905 207.473,154.905 207.473,153.029 
			208.708,153.029 208.708,153.193 207.654,153.193 207.654,153.869 208.574,153.869 208.574,154.025 207.654,154.025 
			207.654,154.741 		"/>
	</g>
</g>
</svg>
